<?xml version="1.0" standalone="no"?>
<!DOCTYPE svg PUBLIC "-//W3C//DTD SVG 20010904//EN"
 "http://www.w3.org/TR/2001/REC-SVG-20010904/DTD/svg10.dtd">
<svg version="1.0" xmlns="http://www.w3.org/2000/svg"
 width="300.000000pt" height="300.000000pt" viewBox="0 0 300.000000 300.000000"
 preserveAspectRatio="xMidYMid meet">

<g transform="translate(0.000000,300.000000) scale(0.100000,-0.100000)"
fill="#000000" stroke="none">
<path d="M17 2982 c-24 -26 -25 -233 -1 -256 8 -9 21 -16 27 -16 7 -1 231 0
500 0 328 0 494 -3 507 -10 18 -10 20 -21 20 -119 0 -90 -3 -110 -16 -115 -9
-3 -242 -6 -518 -6 -475 0 -504 -1 -519 -18 -14 -15 -17 -40 -17 -130 0 -167
-56 -152 561 -152 l509 0 0 -115 c0 -85 -3 -115 -12 -115 -7 0 -235 0 -506 0
-484 0 -494 0 -523 -21 l-29 -20 0 -113 c0 -105 2 -114 23 -134 l23 -22 640 0
641 0 21 23 22 23 0 651 c0 617 -1 651 -18 666 -17 15 -78 17 -669 17 -617 0
-651 -1 -666 -18z"/>
<path d="M1647 2982 c-15 -17 -17 -78 -17 -673 l0 -655 29 -17 c27 -16 82 -17
663 -17 604 1 634 2 656 19 20 18 22 27 22 135 l0 116 -32 20 c-32 19 -52 20
-535 20 l-503 0 0 115 0 115 509 0 c617 0 561 -15 561 154 0 96 -3 115 -18
129 -16 15 -72 17 -533 19 l-514 3 -3 112 c-2 104 -1 113 18 123 11 6 26 10
33 9 6 -1 231 -1 499 0 428 1 488 3 502 17 13 12 16 39 16 128 0 97 -3 115
-18 129 -17 15 -78 17 -669 17 -617 0 -651 -1 -666 -18z"/>
<path d="M22 1347 c-20 -21 -22 -34 -22 -134 l0 -112 29 -20 c28 -20 41 -21
396 -21 384 0 412 3 429 45 3 9 6 61 6 116 0 93 -2 102 -25 124 l-24 25 -384
0 -384 0 -21 -23z"/>
<path d="M1095 1345 l-25 -24 0 -246 0 -245 -513 0 -514 0 -21 -23 c-20 -21
-22 -34 -22 -134 0 -94 3 -112 18 -126 16 -15 72 -17 533 -19 l514 -3 2 -240
c2 -160 7 -248 15 -262 11 -22 17 -23 138 -23 85 0 130 4 138 12 9 9 12 170
12 664 l0 653 -26 20 c-23 18 -41 21 -126 21 -92 0 -101 -2 -123 -25z"/>
<path d="M1670 1363 c-39 -16 -39 -17 -40 -686 0 -549 2 -651 14 -663 12 -12
116 -14 673 -14 499 0 662 3 671 12 8 8 12 51 12 130 0 111 -1 118 -22 130
-17 9 -146 12 -523 12 -275 1 -506 5 -512 9 -10 6 -13 95 -13 388 l0 379 506
0 c495 0 507 0 535 21 l29 20 0 113 c0 105 -2 114 -23 134 l-23 22 -635 -1
c-349 0 -641 -3 -649 -6z"/>
</g>
</svg>
