G04 ================== begin FILE IDENTIFICATION RECORD ==================*
G04 Layout Name:  C:\MotorCtl\ard_pololu_2\ard_pololu_2.brd*
G04 Film Name:    TOP*
G04 File Format:  Gerber RS274X*
G04 File Origin:  -unreleased*
G04 Origin Date:  Tue Mar 13 13:06:19 2012*
G04 ================== end FILE IDENTIFICATION RECORD ====================*
%FSLAX53Y53*MOIN*%
%IR0*IPPOS*OFA0.00000B0.00000*MIA0B0*SFA1.00000B1.00000*%
%ADD10C,.1*%
%ADD11R,.1X.1*%
%ADD12C,.19*%
%ADD16C,.06*%
%ADD13C,.07*%
%ADD19C,.035*%
%ADD14C,.063*%
%ADD20C,.065*%
%ADD15R,.06X.06*%
%ADD17R,.07X.07*%
%ADD18R,.065X.065*%
%ADD21C,.01*%
%ADD22C,.012*%
%ADD23C,.04*%
%ADD24C,.015*%
%ADD25C,.025*%
%ADD26C,.001*%
G75*
%LPD*%
G75*
G54D10*
X167Y128D03*
Y806D03*
Y609D03*
Y1003D03*
Y1396D03*
Y1593D03*
Y1790D03*
X2250Y497D03*
Y694D03*
Y891D03*
Y1334D03*
Y1531D03*
Y1728D03*
G54D20*
X1125Y1770D03*
X1170Y500D03*
Y400D03*
X1270Y500D03*
Y400D03*
Y800D03*
X1170Y700D03*
Y800D03*
X1270Y600D03*
Y900D03*
X1170D03*
Y1100D03*
Y1000D03*
X1270Y1100D03*
Y1000D03*
Y1400D03*
X1170Y1300D03*
Y1400D03*
X1270Y1200D03*
X1225Y1670D03*
X1325D03*
X1270Y1500D03*
X1170D03*
X1225Y1770D03*
X1325D03*
G54D11*
X167Y325D03*
Y1200D03*
Y1987D03*
X2250Y300D03*
Y1137D03*
G54D21*
G01X860Y885D02*
X865Y880D01*
X1000D01*
X1070Y950D01*
X1325D01*
X1370Y995D01*
X1485D01*
G01X1075Y1905D02*
X1020Y1850D01*
Y1835D01*
X950Y1765D01*
Y1750D01*
G01X1225Y1770D02*
Y1737D01*
X1273Y1690D01*
Y1637D01*
X1390Y1520D01*
G01X2100Y2000D02*
Y1925D01*
X2045Y1870D01*
X1875D01*
G01X2000Y2000D02*
Y1905D01*
G01X2200Y2000D02*
Y1920D01*
G54D12*
X550Y100D03*
X600Y2000D03*
X2600Y300D03*
Y1400D03*
G54D22*
G01X985Y125D02*
X1275D01*
X1300Y100D01*
G01X1375Y290D02*
X1315Y350D01*
X1030D01*
X1010Y330D01*
X950D01*
G01D02*
X860Y420D01*
Y885D01*
G01X1130Y1875D02*
X1095D01*
X1015Y1795D01*
Y1070D01*
X975Y1030D01*
X950D01*
G01X1215Y1855D02*
X1200D01*
X1187Y1842D01*
X1101D01*
X1045Y1785D01*
Y1030D01*
X950Y935D01*
Y930D01*
G01X860Y885D02*
Y1105D01*
X905Y1150D01*
X950D01*
G01Y1850D02*
X1025Y1925D01*
G01X1225Y1670D02*
Y1630D01*
X1360Y1495D01*
Y1490D01*
X1361Y1460D01*
X1360Y1195D01*
X1440Y1115D01*
X1480D01*
G01X1390Y1520D02*
Y1305D01*
X1480Y1215D01*
G01X1325Y1670D02*
X1275Y1721D01*
Y1891D01*
X1165Y2000D01*
X1150D01*
G01X1325Y1770D02*
Y1925D01*
X1250Y2000D01*
G01X1800D02*
X1795Y1995D01*
Y1955D01*
X1725Y1885D01*
Y560D01*
X1485Y320D01*
Y295D01*
G01X1580Y1825D02*
Y490D01*
X1485Y395D01*
G01X1480Y1815D02*
X1545Y1750D01*
Y1055D01*
X1485Y995D01*
G01X1650Y2000D02*
Y1915D01*
X1630Y1895D01*
X1545D01*
X1480Y1830D01*
Y1815D01*
G01X1875Y1870D02*
X1830Y1825D01*
X1785D01*
G54D13*
X450Y330D03*
Y430D03*
Y530D03*
Y630D03*
Y730D03*
Y830D03*
Y1150D03*
Y930D03*
Y1030D03*
Y1250D03*
Y1350D03*
Y1450D03*
Y1550D03*
Y1650D03*
Y1750D03*
Y1850D03*
X950Y430D03*
Y530D03*
Y630D03*
Y730D03*
Y830D03*
Y930D03*
Y1030D03*
Y1250D03*
Y1350D03*
Y1450D03*
Y1550D03*
Y1650D03*
Y1750D03*
X1150Y2000D03*
X1050D03*
X950D03*
Y1850D03*
X1400Y100D03*
X1300D03*
X1450Y2000D03*
X1350D03*
X1250D03*
X1700Y100D03*
X1600D03*
X1500D03*
X1485Y495D03*
Y395D03*
Y295D03*
Y795D03*
Y695D03*
Y595D03*
X1480Y1115D03*
X1485Y895D03*
X1480Y1415D03*
Y1315D03*
Y1215D03*
Y1715D03*
Y1615D03*
Y1515D03*
X1550Y2000D03*
X2000Y100D03*
X1985Y495D03*
Y395D03*
Y295D03*
Y795D03*
Y695D03*
Y595D03*
X1980Y1115D03*
X1985Y995D03*
Y895D03*
X1980Y1415D03*
Y1315D03*
Y1215D03*
Y1715D03*
Y1615D03*
Y1515D03*
X2000Y2000D03*
X1900D03*
X1800D03*
X1980Y1815D03*
X2300Y100D03*
X2200D03*
X2100D03*
X2300Y2000D03*
X2200D03*
X2100D03*
X2400Y100D03*
Y2000D03*
G54D23*
G01X167Y325D02*
X445D01*
X450Y330D01*
G01Y530D02*
X310D01*
X231Y609D01*
X167D01*
G01X450Y630D02*
X343D01*
X167Y806D01*
G01Y1003D02*
X235Y935D01*
Y915D01*
X420Y730D01*
X450D01*
G01Y830D02*
X435D01*
X320Y945D01*
Y1047D01*
X167Y1200D01*
G01X450Y1350D02*
X213D01*
X167Y1396D01*
G01X450Y1450D02*
X315D01*
X172Y1593D01*
X167D01*
G01Y1790D02*
X210D01*
X450Y1550D01*
G01Y1650D02*
X345Y1755D01*
Y1815D01*
X173Y1987D01*
X167D01*
G01X450Y330D02*
X575D01*
X645Y400D01*
Y480D01*
G01X450Y1150D02*
X580D01*
G01X720Y1010D02*
Y720D01*
X645Y645D01*
Y480D01*
G01X580Y1150D02*
X595D01*
X635Y1190D01*
Y1300D01*
G01X1985Y495D02*
X2055D01*
X2250Y300D01*
G01Y891D02*
X2246Y895D01*
X2170D01*
X2070Y795D01*
X1985D01*
G01Y695D02*
X2249D01*
X2250Y694D01*
G01X1985Y595D02*
X2152D01*
X2250Y497D01*
G01X1980Y1315D02*
X2072D01*
X2250Y1137D01*
G01X1980Y1415D02*
X2169D01*
X2250Y1334D01*
G01X1980Y1515D02*
X2234D01*
X2250Y1531D01*
G01X1980Y1615D02*
X2137D01*
X2250Y1728D01*
G54D14*
X788Y125D03*
X985D03*
G54D24*
G01X450Y930D02*
X580D01*
G01X450Y1750D02*
X580D01*
G01X1170Y500D02*
X1085D01*
X1055Y530D01*
X950D01*
G01Y430D02*
X1140D01*
X1170Y400D01*
G01Y600D02*
X1165Y595D01*
X1075D01*
X1040Y630D01*
X950D01*
G01X1270Y800D02*
X1480D01*
X1485Y795D01*
G01X1270Y700D02*
X1480D01*
X1485Y695D01*
G01X1270Y900D02*
X1480D01*
X1485Y895D01*
G01X1865Y395D02*
X1985D01*
G01X1980Y1215D02*
X1875D01*
G54D15*
X645Y480D03*
X635Y1300D03*
X1800Y850D03*
X1775Y1635D03*
G54D25*
G01X1800Y850D02*
X1880D01*
X1910Y820D01*
G01X1870Y1635D02*
X1775D01*
G54D16*
X782Y480D03*
X580Y930D03*
X780D03*
X772Y1300D03*
X580Y1750D03*
X780D03*
X1075Y290D03*
X1375D03*
X1665Y395D03*
X1663Y850D03*
X1675Y1215D03*
X1638Y1635D03*
X1865Y395D03*
X1875Y1215D03*
G54D26*
G01X0Y0D02*
Y2100D01*
X2700D01*
Y0D01*
X0D01*
G54D17*
X950Y330D03*
Y1150D03*
X1485Y995D03*
X1650Y2000D03*
X1480Y1815D03*
X1800Y100D03*
X2500D03*
Y2000D03*
G54D18*
X1125Y1670D03*
X1270Y700D03*
X1170Y600D03*
X1270Y1300D03*
X1170Y1200D03*
G54D19*
G01X1910Y820D02*
X1770Y680D01*
Y225D01*
X1750Y205D01*
X905D01*
X840Y270D01*
X510D01*
X450Y330D01*
G01X580Y1150D02*
X720Y1010D01*
G01X1880Y995D02*
X1985D01*
G01X1870Y1635D02*
X1800Y1565D01*
Y1075D01*
X1880Y995D01*
G01D02*
X1910Y965D01*
Y820D01*
G01X1980Y1815D02*
X1880Y1715D01*
Y1645D01*
X1870Y1635D01*
X1025Y1925D03*
X1075Y1905D03*
X1130Y1875D03*
X1215Y1855D03*
X1580Y1825D03*
X1785D03*
X2000Y1905D03*
X2200Y1920D03*
M02*
