G04 ================== begin FILE IDENTIFICATION RECORD ==================*
G04 Layout Name:  C:\MotorCtl\ard_pololu_2\ard_pololu_2.brd*
G04 Film Name:    TOP_SOLDER_MASK*
G04 File Format:  Gerber RS274X*
G04 File Origin:  -unreleased*
G04 Origin Date:  Tue Mar 13 13:06:20 2012*
G04 ================== end FILE IDENTIFICATION RECORD ====================*
%FSLAX53Y53*MOIN*%
%IR0*IPPOS*OFA0.00000B0.00000*MIA0B0*SFA1.00000B1.00000*%
%ADD12C,.2*%
%ADD10C,.11*%
%ADD11R,.11X.11*%
%ADD16C,.07*%
%ADD13C,.08*%
%ADD19C,.045*%
%ADD14C,.073*%
%ADD20C,.075*%
%ADD15R,.07X.07*%
%ADD17R,.08X.08*%
%ADD18R,.075X.075*%
%ADD21C,.001*%
G75*
%LPD*%
G75*
G54D10*
X167Y128D03*
Y806D03*
Y609D03*
Y1003D03*
Y1396D03*
Y1593D03*
Y1790D03*
X2250Y497D03*
Y694D03*
Y891D03*
Y1334D03*
Y1531D03*
Y1728D03*
G54D20*
X1125Y1770D03*
X1170Y500D03*
Y400D03*
X1270Y500D03*
Y400D03*
Y800D03*
X1170Y700D03*
Y800D03*
X1270Y600D03*
Y900D03*
X1170D03*
Y1100D03*
Y1000D03*
X1270Y1100D03*
Y1000D03*
Y1400D03*
X1170Y1300D03*
Y1400D03*
X1270Y1200D03*
X1225Y1670D03*
X1325D03*
X1270Y1500D03*
X1170D03*
X1225Y1770D03*
X1325D03*
G54D11*
X167Y325D03*
Y1200D03*
Y1987D03*
X2250Y300D03*
Y1137D03*
G54D21*
G01X0Y0D02*
Y2100D01*
X2700D01*
Y0D01*
X0D01*
G54D12*
X550Y100D03*
X600Y2000D03*
X2600Y300D03*
Y1400D03*
G54D13*
X450Y330D03*
Y430D03*
Y530D03*
Y630D03*
Y730D03*
Y830D03*
Y1150D03*
Y930D03*
Y1030D03*
Y1250D03*
Y1350D03*
Y1450D03*
Y1550D03*
Y1650D03*
Y1750D03*
Y1850D03*
X950Y430D03*
Y530D03*
Y630D03*
Y730D03*
Y830D03*
Y930D03*
Y1030D03*
Y1250D03*
Y1350D03*
Y1450D03*
Y1550D03*
Y1650D03*
Y1750D03*
X1150Y2000D03*
X1050D03*
X950D03*
Y1850D03*
X1400Y100D03*
X1300D03*
X1450Y2000D03*
X1350D03*
X1250D03*
X1700Y100D03*
X1600D03*
X1500D03*
X1485Y495D03*
Y395D03*
Y295D03*
Y795D03*
Y695D03*
Y595D03*
X1480Y1115D03*
X1485Y895D03*
X1480Y1415D03*
Y1315D03*
Y1215D03*
Y1715D03*
Y1615D03*
Y1515D03*
X1550Y2000D03*
X2000Y100D03*
X1985Y495D03*
Y395D03*
Y295D03*
Y795D03*
Y695D03*
Y595D03*
X1980Y1115D03*
X1985Y995D03*
Y895D03*
X1980Y1415D03*
Y1315D03*
Y1215D03*
Y1715D03*
Y1615D03*
Y1515D03*
X2000Y2000D03*
X1900D03*
X1800D03*
X1980Y1815D03*
X2300Y100D03*
X2200D03*
X2100D03*
X2300Y2000D03*
X2200D03*
X2100D03*
X2400Y100D03*
Y2000D03*
G54D14*
X788Y125D03*
X985D03*
G54D15*
X645Y480D03*
X635Y1300D03*
X1800Y850D03*
X1775Y1635D03*
G54D16*
X782Y480D03*
X580Y930D03*
X780D03*
X772Y1300D03*
X580Y1750D03*
X780D03*
X1075Y290D03*
X1375D03*
X1665Y395D03*
X1663Y850D03*
X1675Y1215D03*
X1638Y1635D03*
X1865Y395D03*
X1875Y1215D03*
G54D17*
X950Y330D03*
Y1150D03*
X1485Y995D03*
X1650Y2000D03*
X1480Y1815D03*
X1800Y100D03*
X2500D03*
Y2000D03*
G54D18*
X1125Y1670D03*
X1270Y700D03*
X1170Y600D03*
X1270Y1300D03*
X1170Y1200D03*
G54D19*
X1025Y1925D03*
X1075Y1905D03*
X1130Y1875D03*
X1215Y1855D03*
X1580Y1825D03*
X1785D03*
X2000Y1905D03*
X2200Y1920D03*
M02*
