G04 ================== begin FILE IDENTIFICATION RECORD ==================*
G04 Layout Name:  C:\MotorCtl\ard_pololu_2\ard_pololu_2.brd*
G04 Film Name:    TOP_SILK*
G04 File Format:  Gerber RS274X*
G04 File Origin:  -unreleased*
G04 Origin Date:  Tue Mar 13 13:06:19 2012*
G04 ================== end FILE IDENTIFICATION RECORD ====================*
%FSLAX53Y53*MOIN*%
%IR0*IPPOS*OFA0.00000B0.00000*MIA0B0*SFA1.00000B1.00000*%
%ADD10C,.008*%
%ADD11C,.01*%
%ADD12C,.02*%
%ADD13C,.001*%
G75*
%LPD*%
G75*
G54D10*
G01X400Y280D02*
X1000D01*
Y1080D01*
X400D01*
Y280D01*
G01D02*
X1000D01*
Y1080D01*
X400D01*
Y280D01*
G01Y1100D02*
X1000D01*
Y1900D01*
X400D01*
Y1100D01*
G01D02*
X1000D01*
Y1900D01*
X400D01*
Y1100D01*
G01X713Y637D02*
G02X871Y480I0J-158D01*
G02X713Y323I-156J-1D01*
G02X556Y480I2J159D01*
G02X713Y637I155J2D01*
G01D02*
G02X871Y480I0J-158D01*
G02X713Y323I-156J-1D01*
G02X556Y480I2J159D01*
G02X713Y637I155J2D01*
G01X550Y930D02*
Y980D01*
X810D01*
Y880D01*
X550D01*
Y930D01*
G01D02*
Y980D01*
X810D01*
Y880D01*
X550D01*
Y930D01*
G01X703Y1457D02*
G02X861Y1300I0J-158D01*
G02X703Y1143I-156J-1D01*
G02X546Y1300I2J159D01*
G02X703Y1457I155J2D01*
G01D02*
G02X861Y1300I0J-158D01*
G02X703Y1143I-156J-1D01*
G02X546Y1300I2J159D01*
G02X703Y1457I155J2D01*
G01X550Y1750D02*
Y1800D01*
X810D01*
Y1700D01*
X550D01*
Y1750D01*
G01D02*
Y1800D01*
X810D01*
Y1700D01*
X550D01*
Y1750D01*
G01X1120Y355D02*
X1010D01*
G01X1120Y645D02*
X1015D01*
X1010Y650D01*
G01X1120Y955D02*
X1015D01*
G01X1120Y1245D02*
X1015D01*
G01X1080Y1620D02*
Y1820D01*
X1370D01*
Y1620D01*
X1080D01*
G01D02*
Y1820D01*
X1370D01*
Y1620D01*
X1080D01*
G01X1700Y1950D02*
Y2050D01*
X900D01*
Y1950D01*
X1700D01*
G01D02*
Y2050D01*
X900D01*
Y1950D01*
X1700D01*
G01X1850Y50D02*
Y150D01*
X1250D01*
Y50D01*
X1850D01*
G01D02*
Y150D01*
X1250D01*
Y50D01*
X1850D01*
G01X1120Y645D02*
X1320D01*
Y355D01*
X1120D01*
Y645D01*
G01D02*
X1320D01*
Y355D01*
X1120D01*
Y645D01*
G01X1325Y340D02*
Y240D01*
X1125D01*
Y340D01*
X1325D01*
G01D02*
X1125D01*
Y240D01*
X1325D01*
Y340D01*
G01X1320Y655D02*
X1120D01*
Y945D01*
X1320D01*
Y655D01*
G01D02*
X1120D01*
Y945D01*
X1320D01*
Y655D01*
G01D02*
X1445D01*
G01X1120Y1245D02*
X1320D01*
Y955D01*
X1120D01*
Y1245D01*
G01D02*
X1320D01*
Y955D01*
X1120D01*
Y1245D01*
G01X1320Y955D02*
X1445D01*
G01X1315Y945D02*
X1435D01*
G01X1320Y1255D02*
X1120D01*
Y1545D01*
X1320D01*
Y1255D01*
G01D02*
X1120D01*
Y1545D01*
X1320D01*
Y1255D01*
G01X1315D02*
X1440D01*
G01X1300Y1545D02*
X1425D01*
G01X1167Y1570D02*
X1180Y1610D01*
X1193Y1570D01*
G01X1188Y1584D02*
X1172D01*
G01X1249Y1565D02*
Y1605D01*
X1259D01*
X1263Y1603D01*
X1266Y1600D01*
X1269Y1596D01*
X1271Y1592D01*
X1271Y1585D01*
X1271Y1578D01*
X1269Y1574D01*
X1266Y1570D01*
X1263Y1567D01*
X1259Y1565D01*
X1249D01*
G01X1300D02*
Y1583D01*
X1290Y1605D01*
G01X1310D02*
X1300Y1583D01*
G01X1235Y1856D02*
X1240Y1848D01*
X1246Y1843D01*
X1253Y1840D01*
X1261Y1843D01*
X1267Y1848D01*
X1273Y1856D01*
X1275Y1867D01*
Y1920D01*
G01X1305Y1840D02*
Y1920D01*
X1329D01*
X1337Y1916D01*
X1343Y1907D01*
X1345Y1896D01*
X1343Y1885D01*
X1338Y1877D01*
X1329Y1873D01*
X1305D01*
G01X1373Y1852D02*
X1379Y1845D01*
X1386Y1841D01*
X1395Y1840D01*
X1404Y1843D01*
X1411Y1848D01*
X1416Y1857D01*
X1417Y1868D01*
X1415Y1879D01*
X1410Y1885D01*
X1403Y1891D01*
X1396Y1892D01*
X1389Y1891D01*
X1380Y1885D01*
X1383Y1920D01*
X1410D01*
G01X1895Y395D02*
Y345D01*
X1635D01*
Y445D01*
X1895D01*
Y395D01*
G01D02*
Y345D01*
X1635D01*
Y445D01*
X1895D01*
Y395D01*
G01X2035Y1045D02*
X1435D01*
Y245D01*
X2035D01*
Y1045D01*
G01D02*
X1435D01*
Y245D01*
X2035D01*
Y1045D01*
G01X1732Y693D02*
G02X1574Y850I0J158D01*
G02X1732Y1007I156J1D01*
G02X1889Y850I-2J-159D01*
G02X1732Y693I-155J-2D01*
G01D02*
G02X1574Y850I0J158D01*
G02X1732Y1007I156J1D01*
G02X1889Y850I-2J-159D01*
G02X1732Y693I-155J-2D01*
G01X2030Y1865D02*
X1430D01*
Y1065D01*
X2030D01*
Y1865D01*
G01D02*
X1430D01*
Y1065D01*
X2030D01*
Y1865D01*
G01X1905Y1215D02*
Y1165D01*
X1645D01*
Y1265D01*
X1905D01*
Y1215D01*
G01D02*
Y1165D01*
X1645D01*
Y1265D01*
X1905D01*
Y1215D01*
G01X1707Y1478D02*
G02X1549Y1635I0J158D01*
G02X1707Y1792I156J1D01*
G02X1864Y1635I-2J-159D01*
G02X1707Y1478I-155J-2D01*
G01D02*
G02X1549Y1635I0J158D01*
G02X1707Y1792I156J1D01*
G02X1864Y1635I-2J-159D01*
G02X1707Y1478I-155J-2D01*
G01X2550Y50D02*
Y150D01*
X1950D01*
Y50D01*
X2550D01*
G01D02*
Y150D01*
X1950D01*
Y50D01*
X2550D01*
G01Y1950D02*
Y2050D01*
X1750D01*
Y1950D01*
X2550D01*
G01D02*
Y2050D01*
X1750D01*
Y1950D01*
X2550D01*
G54D11*
G01X37Y447D02*
X332D01*
Y6D01*
X37D01*
Y447D01*
X332D01*
G01X37D02*
X332D01*
Y6D01*
X37D01*
X45Y447D01*
X332D01*
G01X37Y1322D02*
X332D01*
Y487D01*
X37D01*
Y1322D01*
X332D01*
G01X37D02*
X332D01*
Y487D01*
X37D01*
Y1322D01*
X332D01*
G01X37Y2109D02*
X332D01*
Y1274D01*
X37D01*
Y2109D01*
X332D01*
G01X37D02*
X332D01*
Y1274D01*
X37D01*
Y2109D01*
X332D01*
G01X300Y265D02*
X245D01*
G01X300Y280D02*
Y250D01*
G01X274Y215D02*
X277Y212D01*
X282Y210D01*
X288Y209D01*
X294Y210D01*
X297Y213D01*
X300Y217D01*
Y235D01*
X245D01*
Y213D01*
X249Y209D01*
X254Y206D01*
X261Y205D01*
X267Y206D01*
X272Y210D01*
X274Y215D01*
Y235D01*
G01X245Y175D02*
X300D01*
X289Y183D01*
G01X245D02*
Y167D01*
G01X555Y577D02*
X500D01*
Y593D01*
X503Y598D01*
X509Y602D01*
X516Y603D01*
X524Y602D01*
X529Y599D01*
X532Y593D01*
Y577D01*
G01X555Y635D02*
X554Y630D01*
X550Y625D01*
X545Y621D01*
X538Y618D01*
X531Y617D01*
X524D01*
X516Y618D01*
X510Y621D01*
X505Y625D01*
X501Y630D01*
X500Y635D01*
X501Y640D01*
X505Y645D01*
X510Y649D01*
X516Y652D01*
X524Y653D01*
X531D01*
X538Y652D01*
X545Y649D01*
X550Y645D01*
X554Y640D01*
X555Y635D01*
G01X500Y680D02*
X555D01*
G01X500Y665D02*
Y695D01*
G01X537Y716D02*
Y734D01*
G01Y761D02*
Y779D01*
G01X555Y802D02*
X537Y828D01*
X518Y802D01*
G01X300Y945D02*
X245D01*
G01X300Y960D02*
Y930D01*
G01X274Y895D02*
X277Y892D01*
X282Y890D01*
X288Y889D01*
X294Y890D01*
X297Y893D01*
X300Y897D01*
Y915D01*
X245D01*
Y893D01*
X249Y889D01*
X254Y886D01*
X261Y885D01*
X267Y886D01*
X272Y890D01*
X274Y895D01*
Y915D01*
G01X291Y868D02*
X296Y864D01*
X299Y859D01*
X300Y854D01*
X298Y847D01*
X294Y842D01*
X288Y841D01*
X283Y842D01*
X278Y844D01*
X269Y858D01*
X262Y864D01*
X253Y868D01*
X245Y869D01*
Y841D01*
G01X285Y1745D02*
X230D01*
G01X285Y1760D02*
Y1730D01*
G01X259Y1695D02*
X262Y1692D01*
X267Y1690D01*
X273Y1689D01*
X279Y1690D01*
X282Y1693D01*
X285Y1697D01*
Y1715D01*
X230D01*
Y1693D01*
X234Y1689D01*
X239Y1686D01*
X246Y1685D01*
X252Y1686D01*
X257Y1690D01*
X259Y1695D01*
Y1715D01*
G01X241Y1670D02*
X235Y1666D01*
X231Y1660D01*
X230Y1654D01*
X231Y1649D01*
X235Y1644D01*
X241Y1640D01*
X247Y1640D01*
X253Y1641D01*
X257Y1646D01*
X259Y1650D01*
Y1656D01*
G01Y1650D02*
X262Y1646D01*
X267Y1643D01*
X272Y1642D01*
X278Y1643D01*
X282Y1646D01*
X285Y1652D01*
X284Y1658D01*
X280Y1664D01*
G01X1005Y243D02*
X768D01*
Y7D01*
X1005D01*
Y243D01*
G01D02*
Y7D01*
X768D01*
Y243D01*
X1005D01*
G01X740Y37D02*
X685D01*
Y53D01*
X688Y59D01*
X691Y62D01*
X699Y63D01*
X706Y62D01*
X711Y58D01*
X713Y53D01*
Y37D01*
G01Y53D02*
X740Y63D01*
G01Y108D02*
Y82D01*
X685D01*
Y108D01*
G01X712Y98D02*
Y82D01*
G01X733Y126D02*
X737Y131D01*
X740Y137D01*
Y143D01*
X737Y148D01*
X733Y152D01*
X726Y154D01*
X720Y153D01*
X714Y149D01*
X711Y143D01*
X709Y135D01*
X705Y131D01*
X699Y129D01*
X692Y130D01*
X688Y133D01*
X685Y138D01*
Y143D01*
X687Y147D01*
X691Y151D01*
G01X740Y198D02*
Y172D01*
X685D01*
Y198D01*
G01X712Y188D02*
Y172D01*
G01X685Y230D02*
X740D01*
G01X685Y215D02*
Y245D01*
G01X633Y403D02*
X649D01*
G01X640Y415D02*
Y391D01*
G01X707Y575D02*
X703Y578D01*
X699Y580D01*
X693D01*
X687Y577D01*
X683Y573D01*
X679Y567D01*
X676Y558D01*
X676Y550D01*
X677Y541D01*
X679Y536D01*
X683Y530D01*
X688Y527D01*
X692Y525D01*
X697D01*
X702Y527D01*
X706Y530D01*
X709Y533D01*
G01X723D02*
X727Y529D01*
X731Y526D01*
X737Y525D01*
X744Y527D01*
X748Y530D01*
X752Y537D01*
X752Y544D01*
X751Y552D01*
X748Y556D01*
X743Y560D01*
X738Y561D01*
X734Y560D01*
X728Y556D01*
X730Y580D01*
X748D01*
G01X638Y553D02*
X654D01*
G01X645Y565D02*
Y541D01*
G01X601Y680D02*
X629Y735D01*
G01X601D02*
X629Y680D01*
G01X651Y698D02*
X669D01*
G01X688Y680D02*
X705Y735D01*
X722Y680D01*
G01X716Y699D02*
X694D01*
G01X736Y680D02*
X764Y735D01*
G01X736D02*
X764Y680D01*
G01X787Y735D02*
X803D01*
G01X795D02*
Y680D01*
G01X787D02*
X803D01*
G01X826Y687D02*
X831Y683D01*
X837Y680D01*
X843D01*
X848Y683D01*
X852Y687D01*
X854Y694D01*
X853Y700D01*
X849Y706D01*
X843Y709D01*
X835Y711D01*
X831Y715D01*
X829Y721D01*
X830Y728D01*
X833Y732D01*
X838Y735D01*
X843D01*
X847Y733D01*
X851Y729D01*
G01X672Y1055D02*
X668Y1058D01*
X664Y1060D01*
X658D01*
X652Y1057D01*
X647Y1053D01*
X644Y1047D01*
X641Y1038D01*
X641Y1030D01*
X642Y1022D01*
X644Y1016D01*
X648Y1010D01*
X653Y1007D01*
X657Y1005D01*
X662D01*
X667Y1007D01*
X671Y1010D01*
X674Y1013D01*
G01X702Y1005D02*
Y1060D01*
X695Y1049D01*
G01Y1005D02*
X710D01*
G01X702Y1390D02*
X698Y1393D01*
X694Y1395D01*
X688D01*
X682Y1392D01*
X677Y1388D01*
X674Y1382D01*
X671Y1373D01*
X671Y1365D01*
X672Y1357D01*
X674Y1351D01*
X678Y1345D01*
X683Y1342D01*
X687Y1340D01*
X692D01*
X697Y1342D01*
X701Y1345D01*
X704Y1348D01*
G01X720Y1363D02*
X725Y1369D01*
X729Y1373D01*
X734Y1375D01*
X739Y1373D01*
X742Y1369D01*
X745Y1364D01*
X745Y1357D01*
X745Y1352D01*
X742Y1346D01*
X738Y1342D01*
X733Y1340D01*
X728Y1342D01*
X723Y1347D01*
X721Y1356D01*
X720Y1365D01*
X721Y1377D01*
X723Y1383D01*
X726Y1389D01*
X731Y1394D01*
X736Y1395D01*
X741Y1393D01*
X744Y1389D01*
G01X628Y1378D02*
X644D01*
G01X635Y1390D02*
Y1366D01*
G01X628Y1223D02*
X644D01*
G01X635Y1235D02*
Y1211D01*
G01X560Y1407D02*
X505D01*
Y1423D01*
X508Y1428D01*
X514Y1432D01*
X521Y1433D01*
X529Y1432D01*
X534Y1429D01*
X537Y1423D01*
Y1407D01*
G01X560Y1465D02*
X559Y1460D01*
X555Y1455D01*
X550Y1451D01*
X543Y1448D01*
X536Y1447D01*
X529D01*
X521Y1448D01*
X515Y1451D01*
X510Y1455D01*
X506Y1460D01*
X505Y1465D01*
X506Y1470D01*
X510Y1475D01*
X515Y1479D01*
X521Y1482D01*
X529Y1483D01*
X536D01*
X543Y1482D01*
X550Y1479D01*
X555Y1475D01*
X559Y1470D01*
X560Y1465D01*
G01X505Y1510D02*
X560D01*
G01X505Y1495D02*
Y1525D01*
G01X542Y1546D02*
Y1564D01*
G01Y1591D02*
Y1609D01*
G01X560Y1632D02*
X542Y1658D01*
X523Y1632D01*
G01X625Y1490D02*
Y1515D01*
X612Y1545D01*
G01X638D02*
X625Y1515D01*
G01X661Y1508D02*
X679D01*
G01X698Y1490D02*
X715Y1545D01*
X732Y1490D01*
G01X726Y1509D02*
X704D01*
G01X746Y1490D02*
X774Y1545D01*
G01X746D02*
X774Y1490D01*
G01X797Y1545D02*
X813D01*
G01X805D02*
Y1490D01*
G01X797D02*
X813D01*
G01X836Y1497D02*
X841Y1493D01*
X847Y1490D01*
X853D01*
X858Y1493D01*
X862Y1497D01*
X864Y1504D01*
X863Y1510D01*
X859Y1516D01*
X853Y1519D01*
X845Y1521D01*
X841Y1525D01*
X839Y1531D01*
X840Y1538D01*
X843Y1542D01*
X848Y1545D01*
X853D01*
X857Y1543D01*
X861Y1539D01*
G01X672Y1875D02*
X668Y1878D01*
X664Y1880D01*
X658D01*
X652Y1877D01*
X647Y1873D01*
X644Y1867D01*
X641Y1858D01*
X641Y1850D01*
X642Y1842D01*
X644Y1836D01*
X648Y1830D01*
X653Y1827D01*
X657Y1825D01*
X662D01*
X667Y1827D01*
X671Y1830D01*
X674Y1833D01*
G01X690Y1871D02*
X694Y1876D01*
X699Y1879D01*
X704Y1880D01*
X711Y1878D01*
X715Y1874D01*
X717Y1868D01*
X716Y1863D01*
X713Y1858D01*
X700Y1849D01*
X694Y1842D01*
X690Y1833D01*
X689Y1825D01*
X717D01*
G01X794Y1986D02*
X797Y1980D01*
X801Y1977D01*
X806Y1975D01*
X812Y1977D01*
X816Y1980D01*
X820Y1986D01*
X821Y1993D01*
Y2030D01*
G01X840Y2021D02*
X844Y2026D01*
X849Y2029D01*
X854Y2030D01*
X861Y2028D01*
X865Y2024D01*
X867Y2018D01*
X866Y2013D01*
X863Y2008D01*
X850Y1999D01*
X844Y1992D01*
X840Y1983D01*
X839Y1975D01*
X867D01*
G01X856Y107D02*
X861Y103D01*
X867Y100D01*
X873D01*
X878Y103D01*
X882Y107D01*
X884Y114D01*
X883Y120D01*
X879Y126D01*
X873Y129D01*
X865Y131D01*
X861Y135D01*
X859Y141D01*
X860Y148D01*
X863Y152D01*
X868Y155D01*
X873D01*
X877Y153D01*
X881Y149D01*
G01X915Y100D02*
Y155D01*
X907Y144D01*
G01Y100D02*
X923D01*
G01X1090Y371D02*
X1035Y399D01*
G01Y371D02*
X1090Y399D01*
G01X1072Y421D02*
Y439D01*
G01X1090Y458D02*
X1035Y475D01*
X1090Y492D01*
G01X1071Y486D02*
Y464D01*
G01X1090Y506D02*
X1035Y534D01*
G01Y506D02*
X1090Y534D01*
G01X1035Y557D02*
Y573D01*
G01Y565D02*
X1090D01*
G01Y557D02*
Y573D01*
G01X1083Y596D02*
X1087Y601D01*
X1090Y607D01*
Y613D01*
X1087Y618D01*
X1083Y622D01*
X1076Y624D01*
X1070Y623D01*
X1064Y619D01*
X1061Y613D01*
X1059Y605D01*
X1055Y601D01*
X1049Y599D01*
X1042Y600D01*
X1038Y603D01*
X1035Y608D01*
Y613D01*
X1037Y617D01*
X1041Y621D01*
G01X1045Y681D02*
X1049Y675D01*
X1055Y671D01*
X1061Y670D01*
X1066Y671D01*
X1071Y675D01*
X1075Y681D01*
X1075Y687D01*
X1074Y693D01*
X1069Y697D01*
X1065Y699D01*
X1059D01*
G01X1065D02*
X1069Y702D01*
X1072Y707D01*
X1073Y712D01*
X1072Y718D01*
X1069Y722D01*
X1063Y725D01*
X1057Y724D01*
X1051Y720D01*
G01X1047Y816D02*
X1051Y821D01*
X1056Y824D01*
X1061Y825D01*
X1068Y823D01*
X1073Y819D01*
X1074Y813D01*
X1073Y808D01*
X1071Y803D01*
X1057Y794D01*
X1051Y787D01*
X1047Y778D01*
X1046Y770D01*
X1074D01*
G01X1060Y870D02*
Y925D01*
X1052Y914D01*
G01Y870D02*
X1068D01*
G01X1090Y985D02*
X1065D01*
X1035Y972D01*
G01Y998D02*
X1065Y985D01*
G01X1072Y1021D02*
Y1039D01*
G01X1090Y1058D02*
X1035Y1075D01*
X1090Y1092D01*
G01X1071Y1086D02*
Y1064D01*
G01X1090Y1106D02*
X1035Y1134D01*
G01Y1106D02*
X1090Y1134D01*
G01X1035Y1157D02*
Y1173D01*
G01Y1165D02*
X1090D01*
G01Y1157D02*
Y1173D01*
G01X1083Y1196D02*
X1087Y1201D01*
X1090Y1207D01*
Y1213D01*
X1087Y1218D01*
X1083Y1222D01*
X1076Y1224D01*
X1070Y1223D01*
X1064Y1219D01*
X1061Y1213D01*
X1059Y1205D01*
X1055Y1201D01*
X1049Y1199D01*
X1042Y1200D01*
X1038Y1203D01*
X1035Y1208D01*
Y1213D01*
X1037Y1217D01*
X1041Y1221D01*
G01X1050Y1286D02*
X1054Y1280D01*
X1060Y1276D01*
X1066Y1275D01*
X1071Y1276D01*
X1076Y1280D01*
X1080Y1286D01*
X1080Y1292D01*
X1079Y1298D01*
X1074Y1302D01*
X1070Y1304D01*
X1064D01*
G01X1070D02*
X1074Y1307D01*
X1077Y1312D01*
X1078Y1317D01*
X1077Y1323D01*
X1074Y1327D01*
X1068Y1330D01*
X1062Y1329D01*
X1056Y1325D01*
G01X1052Y1421D02*
X1056Y1426D01*
X1061Y1429D01*
X1066Y1430D01*
X1073Y1428D01*
X1078Y1424D01*
X1079Y1418D01*
X1078Y1413D01*
X1076Y1408D01*
X1062Y1399D01*
X1056Y1392D01*
X1052Y1383D01*
X1051Y1375D01*
X1079D01*
G01X1070Y1475D02*
Y1530D01*
X1062Y1519D01*
G01Y1475D02*
X1078D01*
G01X1139Y86D02*
X1143Y80D01*
X1146Y77D01*
X1151Y75D01*
X1157Y77D01*
X1161Y80D01*
X1165Y86D01*
X1166Y93D01*
Y130D01*
G01X1183Y86D02*
X1187Y80D01*
X1192Y76D01*
X1198Y75D01*
X1204Y76D01*
X1209Y80D01*
X1212Y86D01*
X1213Y91D01*
X1212Y98D01*
X1207Y102D01*
X1202Y104D01*
X1196D01*
G01X1202D02*
X1206Y107D01*
X1210Y112D01*
X1211Y117D01*
X1210Y123D01*
X1206Y127D01*
X1200Y130D01*
X1194Y129D01*
X1188Y125D01*
G01X1162Y260D02*
Y315D01*
X1178D01*
X1184Y312D01*
X1187Y309D01*
X1188Y301D01*
X1187Y294D01*
X1183Y289D01*
X1178Y287D01*
X1162D01*
G01X1178D02*
X1188Y260D01*
G01X1220D02*
Y315D01*
X1212Y304D01*
G01Y260D02*
X1228D01*
G01X1250Y271D02*
X1254Y265D01*
X1260Y261D01*
X1266Y260D01*
X1271Y261D01*
X1276Y265D01*
X1280Y271D01*
X1280Y277D01*
X1279Y283D01*
X1274Y287D01*
X1270Y289D01*
X1264D01*
G01X1270D02*
X1274Y292D01*
X1277Y297D01*
X1278Y302D01*
X1277Y308D01*
X1274Y312D01*
X1268Y315D01*
X1262Y314D01*
X1256Y310D01*
G01X1370Y370D02*
Y425D01*
X1362Y414D01*
G01Y370D02*
X1378D01*
G01X1352Y516D02*
X1356Y521D01*
X1361Y524D01*
X1366Y525D01*
X1373Y523D01*
X1378Y519D01*
X1379Y513D01*
X1378Y508D01*
X1376Y503D01*
X1362Y494D01*
X1356Y487D01*
X1352Y478D01*
X1351Y470D01*
X1379D01*
G01X1350Y581D02*
X1354Y575D01*
X1360Y571D01*
X1366Y570D01*
X1371Y571D01*
X1376Y575D01*
X1380Y581D01*
X1380Y587D01*
X1379Y593D01*
X1374Y597D01*
X1370Y599D01*
X1364D01*
G01X1370D02*
X1374Y602D01*
X1377Y607D01*
X1378Y612D01*
X1377Y618D01*
X1374Y622D01*
X1368Y625D01*
X1362Y624D01*
X1356Y620D01*
G01X1345Y677D02*
Y703D01*
X1400Y677D01*
Y703D01*
G01X1382Y726D02*
Y744D01*
G01X1400Y763D02*
X1345Y780D01*
X1400Y797D01*
G01X1381Y791D02*
Y769D01*
G01X1400Y811D02*
X1345Y839D01*
G01Y811D02*
X1400Y839D01*
G01X1345Y862D02*
Y878D01*
G01Y870D02*
X1400D01*
G01Y862D02*
Y878D01*
G01X1393Y901D02*
X1397Y906D01*
X1400Y912D01*
Y918D01*
X1397Y923D01*
X1393Y927D01*
X1386Y929D01*
X1380Y928D01*
X1374Y924D01*
X1371Y918D01*
X1369Y910D01*
X1365Y906D01*
X1359Y904D01*
X1352Y905D01*
X1348Y908D01*
X1345Y913D01*
Y918D01*
X1347Y922D01*
X1351Y926D01*
G01X1362Y1121D02*
X1366Y1126D01*
X1371Y1129D01*
X1376Y1130D01*
X1383Y1128D01*
X1388Y1124D01*
X1389Y1118D01*
X1388Y1113D01*
X1386Y1108D01*
X1372Y1099D01*
X1366Y1092D01*
X1362Y1083D01*
X1361Y1075D01*
X1389D01*
G01X1375Y975D02*
Y1030D01*
X1367Y1019D01*
G01Y975D02*
X1383D01*
G01X1360Y1181D02*
X1364Y1175D01*
X1370Y1171D01*
X1376Y1170D01*
X1381Y1171D01*
X1386Y1175D01*
X1390Y1181D01*
X1390Y1187D01*
X1389Y1193D01*
X1384Y1197D01*
X1380Y1199D01*
X1374D01*
G01X1380D02*
X1384Y1202D01*
X1387Y1207D01*
X1388Y1212D01*
X1387Y1218D01*
X1384Y1222D01*
X1378Y1225D01*
X1372Y1224D01*
X1366Y1220D01*
G01X1400Y1273D02*
X1345Y1290D01*
X1400Y1307D01*
G01X1381Y1301D02*
Y1279D01*
G01X1382Y1326D02*
Y1344D01*
G01X1400Y1363D02*
X1345Y1380D01*
X1400Y1397D01*
G01X1381Y1391D02*
Y1369D01*
G01X1400Y1411D02*
X1345Y1439D01*
G01Y1411D02*
X1400Y1439D01*
G01X1345Y1462D02*
Y1478D01*
G01Y1470D02*
X1400D01*
G01Y1462D02*
Y1478D01*
G01X1393Y1501D02*
X1397Y1506D01*
X1400Y1512D01*
Y1518D01*
X1397Y1523D01*
X1393Y1527D01*
X1386Y1529D01*
X1380Y1528D01*
X1374Y1524D01*
X1371Y1518D01*
X1369Y1510D01*
X1365Y1506D01*
X1359Y1504D01*
X1352Y1505D01*
X1348Y1508D01*
X1345Y1513D01*
Y1518D01*
X1347Y1522D01*
X1351Y1526D01*
G01X1607Y655D02*
X1633D01*
X1607Y600D01*
X1633D01*
G01X1656Y618D02*
X1674D01*
G01X1693Y600D02*
X1710Y655D01*
X1727Y600D01*
G01X1721Y619D02*
X1699D01*
G01X1741Y600D02*
X1769Y655D01*
G01X1741D02*
X1769Y600D01*
G01X1792Y655D02*
X1808D01*
G01X1800D02*
Y600D01*
G01X1792D02*
X1808D01*
G01X1831Y607D02*
X1836Y603D01*
X1842Y600D01*
X1848D01*
X1853Y603D01*
X1857Y607D01*
X1859Y614D01*
X1858Y620D01*
X1854Y626D01*
X1848Y629D01*
X1840Y631D01*
X1836Y635D01*
X1834Y641D01*
X1835Y648D01*
X1838Y652D01*
X1843Y655D01*
X1848D01*
X1852Y653D01*
X1856Y649D01*
G01X1717Y950D02*
X1713Y953D01*
X1709Y955D01*
X1703D01*
X1697Y952D01*
X1693Y948D01*
X1689Y942D01*
X1686Y933D01*
X1686Y925D01*
X1687Y916D01*
X1689Y911D01*
X1693Y905D01*
X1698Y902D01*
X1702Y900D01*
X1707D01*
X1712Y902D01*
X1716Y905D01*
X1719Y908D01*
G01X1746Y900D02*
X1747Y912D01*
X1750Y922D01*
X1752Y931D01*
X1756Y941D01*
X1761Y955D01*
X1734D01*
G01X1578Y1400D02*
X1595Y1455D01*
X1612Y1400D01*
G01X1606Y1419D02*
X1584D01*
G01X1631Y1418D02*
X1649D01*
G01X1668Y1400D02*
X1685Y1455D01*
X1702Y1400D01*
G01X1696Y1419D02*
X1674D01*
G01X1716Y1400D02*
X1744Y1455D01*
G01X1716D02*
X1744Y1400D01*
G01X1767Y1455D02*
X1783D01*
G01X1775D02*
Y1400D01*
G01X1767D02*
X1783D01*
G01X1806Y1407D02*
X1811Y1403D01*
X1817Y1400D01*
X1823D01*
X1828Y1403D01*
X1832Y1407D01*
X1834Y1414D01*
X1833Y1420D01*
X1829Y1426D01*
X1823Y1429D01*
X1815Y1431D01*
X1811Y1435D01*
X1809Y1441D01*
X1810Y1448D01*
X1813Y1452D01*
X1818Y1455D01*
X1823D01*
X1827Y1453D01*
X1831Y1449D01*
G01X1692Y1750D02*
X1688Y1753D01*
X1684Y1755D01*
X1678D01*
X1672Y1752D01*
X1668Y1748D01*
X1664Y1742D01*
X1661Y1733D01*
X1661Y1725D01*
X1662Y1717D01*
X1664Y1711D01*
X1668Y1705D01*
X1673Y1702D01*
X1677Y1700D01*
X1682D01*
X1687Y1702D01*
X1691Y1705D01*
X1694Y1708D01*
G01X1722Y1700D02*
X1727Y1701D01*
X1732Y1704D01*
X1736Y1708D01*
X1737Y1715D01*
X1736Y1721D01*
X1732Y1727D01*
X1726Y1729D01*
X1719D01*
X1715Y1731D01*
X1712Y1736D01*
X1711Y1742D01*
X1713Y1749D01*
X1717Y1753D01*
X1722Y1755D01*
X1728Y1753D01*
X1732Y1749D01*
X1734Y1742D01*
X1733Y1736D01*
X1730Y1731D01*
X1726Y1729D01*
X1719D01*
X1713Y1727D01*
X1709Y1721D01*
X1708Y1715D01*
X1709Y1708D01*
X1713Y1704D01*
X1718Y1701D01*
X1722Y1700D01*
G01X1762Y525D02*
X1758Y528D01*
X1754Y530D01*
X1748D01*
X1742Y527D01*
X1738Y523D01*
X1734Y517D01*
X1731Y508D01*
X1731Y500D01*
X1732Y491D01*
X1734Y486D01*
X1738Y480D01*
X1743Y477D01*
X1747Y475D01*
X1752D01*
X1757Y477D01*
X1761Y480D01*
X1764Y483D01*
G01X1778Y486D02*
X1782Y480D01*
X1787Y476D01*
X1793Y475D01*
X1799Y476D01*
X1804Y480D01*
X1807Y486D01*
X1808Y491D01*
X1807Y498D01*
X1802Y502D01*
X1797Y504D01*
X1791D01*
G01X1797D02*
X1801Y507D01*
X1805Y512D01*
X1806Y517D01*
X1805Y523D01*
X1801Y527D01*
X1795Y530D01*
X1789Y529D01*
X1783Y525D01*
G01X1793Y778D02*
X1809D01*
G01X1800Y790D02*
Y766D01*
G01X1875Y768D02*
X1930Y768D01*
X1930Y752D01*
X1927Y747D01*
X1921Y743D01*
X1914Y742D01*
X1906Y743D01*
X1901Y746D01*
X1898Y752D01*
X1898Y768D01*
G01X1875Y710D02*
X1876Y715D01*
X1880Y720D01*
X1885Y724D01*
X1892Y727D01*
X1899Y728D01*
X1906Y728D01*
X1914Y727D01*
X1920Y724D01*
X1926Y720D01*
X1929Y715D01*
X1930Y710D01*
X1929Y705D01*
X1926Y700D01*
X1920Y696D01*
X1914Y693D01*
X1906Y692D01*
X1899Y692D01*
X1892Y693D01*
X1885Y696D01*
X1880Y700D01*
X1876Y705D01*
X1875Y710D01*
G01X1930Y665D02*
X1875Y665D01*
G01X1930Y680D02*
X1930Y650D01*
G01X1894Y629D02*
X1894Y611D01*
G01X1894Y584D02*
X1894Y566D01*
G01X1875Y543D02*
X1894Y517D01*
X1912Y543D01*
G01X1798Y923D02*
X1814D01*
G01X1805Y935D02*
Y911D01*
G01X1767Y1340D02*
X1763Y1343D01*
X1759Y1345D01*
X1753D01*
X1747Y1342D01*
X1742Y1338D01*
X1739Y1332D01*
X1736Y1323D01*
X1736Y1315D01*
X1737Y1307D01*
X1739Y1301D01*
X1743Y1295D01*
X1748Y1292D01*
X1752Y1290D01*
X1757D01*
X1762Y1292D01*
X1766Y1295D01*
X1769Y1298D01*
G01X1806Y1290D02*
Y1345D01*
X1781Y1306D01*
X1814D01*
G01X1860Y1548D02*
X1915Y1548D01*
X1915Y1532D01*
X1912Y1527D01*
X1906Y1523D01*
X1899Y1522D01*
X1891Y1523D01*
X1886Y1526D01*
X1883Y1532D01*
X1883Y1548D01*
G01X1860Y1490D02*
X1861Y1495D01*
X1865Y1500D01*
X1870Y1504D01*
X1877Y1507D01*
X1884Y1508D01*
X1891Y1508D01*
X1899Y1507D01*
X1905Y1504D01*
X1911Y1500D01*
X1914Y1495D01*
X1915Y1490D01*
X1914Y1485D01*
X1911Y1480D01*
X1905Y1476D01*
X1899Y1473D01*
X1891Y1472D01*
X1884Y1472D01*
X1877Y1473D01*
X1870Y1476D01*
X1865Y1480D01*
X1861Y1485D01*
X1860Y1490D01*
G01X1915Y1445D02*
X1860Y1445D01*
G01X1915Y1460D02*
X1915Y1430D01*
G01X1879Y1409D02*
X1879Y1391D01*
G01X1879Y1364D02*
X1879Y1346D01*
G01X1860Y1323D02*
X1879Y1297D01*
X1897Y1323D01*
G01X1768Y1563D02*
X1784D01*
G01X1775Y1575D02*
Y1551D01*
G01X1768Y1708D02*
X1784D01*
G01X1775Y1720D02*
Y1696D01*
G01X2380Y178D02*
X2085D01*
Y1013D01*
X2380D01*
Y178D01*
X2085D01*
G01X2380D02*
X2085D01*
Y1013D01*
X2380D01*
Y178D01*
X2085D01*
G01X2180Y635D02*
X2125D01*
G01X2180Y650D02*
Y620D01*
G01X2154Y585D02*
X2157Y582D01*
X2162Y580D01*
X2168Y579D01*
X2174Y580D01*
X2177Y583D01*
X2180Y587D01*
Y605D01*
X2125D01*
Y583D01*
X2129Y579D01*
X2134Y576D01*
X2141Y575D01*
X2147Y576D01*
X2152Y580D01*
X2154Y585D01*
Y605D01*
G01X2125Y537D02*
X2180D01*
X2141Y562D01*
Y528D01*
G01X2380Y1015D02*
X2085D01*
Y1850D01*
X2380D01*
Y1015D01*
X2085D01*
G01X2380D02*
X2085D01*
Y1850D01*
X2380D01*
Y1015D01*
X2085D01*
G01X2170Y1480D02*
X2115D01*
G01X2170Y1495D02*
Y1465D01*
G01X2144Y1430D02*
X2147Y1427D01*
X2152Y1425D01*
X2158Y1424D01*
X2164Y1425D01*
X2167Y1428D01*
X2170Y1432D01*
Y1450D01*
X2115D01*
Y1428D01*
X2119Y1424D01*
X2124Y1421D01*
X2131Y1420D01*
X2137Y1421D01*
X2142Y1425D01*
X2144Y1430D01*
Y1450D01*
G01X2123Y1405D02*
X2119Y1401D01*
X2116Y1396D01*
X2115Y1390D01*
X2117Y1384D01*
X2120Y1379D01*
X2127Y1376D01*
X2134Y1375D01*
X2142Y1377D01*
X2146Y1380D01*
X2150Y1385D01*
X2151Y1389D01*
X2150Y1394D01*
X2146Y1400D01*
X2170Y1398D01*
Y1380D01*
G01X2579Y86D02*
X2583Y80D01*
X2586Y77D01*
X2591Y75D01*
X2597Y77D01*
X2601Y80D01*
X2605Y86D01*
X2606Y93D01*
Y130D01*
G01X2646Y75D02*
Y130D01*
X2621Y91D01*
X2654D01*
G01X2470Y195D02*
X2415D01*
Y209D01*
X2418Y214D01*
X2421Y218D01*
X2427Y221D01*
X2433Y224D01*
X2443Y225D01*
X2452Y224D01*
X2458Y221D01*
X2464Y218D01*
X2467Y214D01*
X2470Y209D01*
Y195D01*
G01Y246D02*
X2433D01*
G01X2441D02*
X2437Y249D01*
X2434Y252D01*
X2433Y257D01*
X2434Y260D01*
X2437Y264D01*
G01X2433Y300D02*
X2470D01*
G01X2419D02*
X2418Y299D01*
X2416D01*
X2415Y300D01*
X2416Y301D01*
X2418D01*
X2419Y300D01*
G01X2433Y333D02*
X2470Y345D01*
X2433Y357D01*
G01X2445Y380D02*
Y401D01*
X2439Y399D01*
X2435Y396D01*
X2433Y391D01*
X2434Y387D01*
X2437Y383D01*
X2443Y380D01*
X2449Y379D01*
X2454D01*
X2460Y380D01*
X2465Y383D01*
X2469Y387D01*
X2470Y392D01*
X2468Y397D01*
X2463Y401D01*
G01X2470Y426D02*
X2433D01*
G01X2441D02*
X2437Y429D01*
X2434Y432D01*
X2433Y437D01*
X2434Y440D01*
X2437Y444D01*
G01X2470Y525D02*
X2469Y520D01*
X2465Y515D01*
X2460Y511D01*
X2454Y508D01*
X2446Y507D01*
X2439D01*
X2432Y508D01*
X2425Y511D01*
X2420Y515D01*
X2416Y520D01*
X2415Y525D01*
X2416Y530D01*
X2420Y535D01*
X2425Y539D01*
X2432Y542D01*
X2439Y543D01*
X2446D01*
X2454Y542D01*
X2460Y539D01*
X2465Y535D01*
X2469Y530D01*
X2470Y525D01*
G01Y561D02*
X2433D01*
G01X2441D02*
X2437Y564D01*
X2434Y567D01*
X2433Y572D01*
X2434Y575D01*
X2437Y579D01*
G01X2433Y615D02*
X2470D01*
G01X2419D02*
X2418Y614D01*
X2416D01*
X2415Y615D01*
X2416Y616D01*
X2418D01*
X2419Y615D01*
G01X2445Y650D02*
Y671D01*
X2439Y669D01*
X2435Y666D01*
X2433Y661D01*
X2434Y657D01*
X2437Y653D01*
X2443Y650D01*
X2449Y649D01*
X2454D01*
X2460Y650D01*
X2465Y653D01*
X2469Y657D01*
X2470Y662D01*
X2468Y667D01*
X2463Y671D01*
G01X2470Y694D02*
X2433D01*
G01X2443D02*
X2438Y696D01*
X2434Y700D01*
X2433Y706D01*
X2434Y710D01*
X2438Y714D01*
X2444Y716D01*
X2470D01*
G01X2415Y750D02*
X2470D01*
G01X2433Y741D02*
Y759D01*
G01X2470Y807D02*
X2433D01*
G01X2440D02*
X2436Y804D01*
X2434Y800D01*
X2433Y796D01*
X2435Y791D01*
X2439Y787D01*
X2444Y784D01*
X2452Y783D01*
X2459Y784D01*
X2465Y787D01*
X2468Y791D01*
X2470Y796D01*
X2469Y800D01*
X2466Y804D01*
X2463Y807D01*
G01X2415Y840D02*
X2470D01*
G01X2433Y831D02*
Y849D01*
G01Y885D02*
X2470D01*
G01X2419D02*
X2418Y884D01*
X2416D01*
X2415Y885D01*
X2416Y886D01*
X2418D01*
X2419Y885D01*
G01X2470Y930D02*
X2469Y926D01*
X2465Y922D01*
X2459Y919D01*
X2452Y918D01*
X2444Y919D01*
X2438Y922D01*
X2434Y926D01*
X2433Y930D01*
X2434Y934D01*
X2438Y938D01*
X2444Y941D01*
X2452Y941D01*
X2459Y941D01*
X2465Y938D01*
X2469Y934D01*
X2470Y930D01*
G01Y964D02*
X2433D01*
G01X2443D02*
X2438Y966D01*
X2434Y970D01*
X2433Y976D01*
X2434Y980D01*
X2438Y984D01*
X2444Y986D01*
X2470D01*
G01X2420Y1080D02*
X2417Y1076D01*
X2415Y1071D01*
Y1066D01*
X2418Y1060D01*
X2422Y1055D01*
X2428Y1052D01*
X2437Y1049D01*
X2445Y1048D01*
X2454Y1050D01*
X2459Y1052D01*
X2465Y1056D01*
X2468Y1060D01*
X2470Y1065D01*
Y1070D01*
X2468Y1074D01*
X2465Y1078D01*
X2462Y1082D01*
G01X2470Y1101D02*
X2433D01*
G01X2441D02*
X2437Y1104D01*
X2434Y1107D01*
X2433Y1112D01*
X2434Y1115D01*
X2437Y1119D01*
G01X2433Y1155D02*
X2470D01*
G01X2419D02*
X2418Y1154D01*
X2416D01*
X2415Y1155D01*
X2416Y1156D01*
X2418D01*
X2419Y1155D01*
G01X2415Y1200D02*
X2470D01*
G01X2433Y1191D02*
Y1209D01*
G01Y1245D02*
X2470D01*
G01X2419D02*
X2418Y1244D01*
X2416D01*
X2415Y1245D01*
X2416Y1246D01*
X2418D01*
X2419Y1245D01*
G01X2438Y1301D02*
X2434Y1296D01*
X2433Y1292D01*
X2435Y1287D01*
X2439Y1283D01*
X2445Y1280D01*
X2452Y1279D01*
X2458Y1280D01*
X2464Y1283D01*
X2468Y1287D01*
X2470Y1292D01*
X2468Y1297D01*
X2465Y1301D01*
G01X2470Y1347D02*
X2433D01*
G01X2440D02*
X2436Y1344D01*
X2434Y1340D01*
X2433Y1336D01*
X2435Y1331D01*
X2439Y1327D01*
X2444Y1324D01*
X2452Y1323D01*
X2459Y1324D01*
X2465Y1327D01*
X2468Y1331D01*
X2470Y1336D01*
X2469Y1340D01*
X2466Y1344D01*
X2463Y1347D01*
G01X2470Y1380D02*
X2415D01*
G01X2472Y1425D02*
X2471Y1424D01*
X2469D01*
X2468Y1425D01*
X2469Y1426D01*
X2471D01*
X2472Y1425D01*
G01X2447D02*
X2446Y1424D01*
X2444D01*
X2443Y1425D01*
X2444Y1426D01*
X2446D01*
X2447Y1425D01*
G01X2470Y1502D02*
X2415D01*
Y1518D01*
X2418Y1524D01*
X2421Y1527D01*
X2429Y1528D01*
X2436Y1527D01*
X2441Y1523D01*
X2443Y1518D01*
Y1502D01*
G01Y1518D02*
X2470Y1528D01*
G01X2445Y1550D02*
Y1571D01*
X2439Y1569D01*
X2435Y1566D01*
X2433Y1561D01*
X2434Y1557D01*
X2437Y1553D01*
X2443Y1550D01*
X2449Y1549D01*
X2454D01*
X2460Y1550D01*
X2465Y1553D01*
X2469Y1557D01*
X2470Y1562D01*
X2468Y1567D01*
X2463Y1571D01*
G01X2470Y1617D02*
X2433D01*
G01X2440D02*
X2436Y1614D01*
X2434Y1610D01*
X2433Y1606D01*
X2435Y1601D01*
X2439Y1597D01*
X2444Y1594D01*
X2452Y1593D01*
X2459Y1594D01*
X2465Y1597D01*
X2468Y1601D01*
X2470Y1606D01*
X2469Y1610D01*
X2466Y1614D01*
X2463Y1617D01*
G01X2415Y1662D02*
X2470D01*
G01X2462D02*
X2466Y1659D01*
X2469Y1655D01*
X2470Y1651D01*
X2468Y1645D01*
X2464Y1641D01*
X2458Y1639D01*
X2452Y1638D01*
X2445Y1639D01*
X2440Y1641D01*
X2435Y1645D01*
X2433Y1651D01*
X2434Y1655D01*
X2436Y1659D01*
X2440Y1662D01*
G01X2443Y1744D02*
Y1757D01*
X2459D01*
X2465Y1753D01*
X2468Y1749D01*
X2470Y1742D01*
X2468Y1735D01*
X2465Y1731D01*
X2459Y1727D01*
X2453Y1724D01*
X2445Y1723D01*
X2439D01*
X2433Y1724D01*
X2427Y1727D01*
X2421Y1731D01*
X2418Y1735D01*
X2415Y1740D01*
Y1745D01*
X2417Y1750D01*
X2421Y1754D01*
G01X2433Y1774D02*
X2459D01*
X2465Y1776D01*
X2469Y1780D01*
X2470Y1785D01*
X2469Y1790D01*
X2465Y1794D01*
X2459Y1796D01*
G01X2470D02*
X2433D01*
G01Y1830D02*
X2470D01*
G01X2419D02*
X2418Y1829D01*
X2416D01*
X2415Y1830D01*
X2416Y1831D01*
X2418D01*
X2419Y1830D01*
G01X2415Y1887D02*
X2470D01*
G01X2462D02*
X2466Y1884D01*
X2469Y1880D01*
X2470Y1876D01*
X2468Y1870D01*
X2464Y1866D01*
X2458Y1864D01*
X2452Y1863D01*
X2445Y1864D01*
X2440Y1866D01*
X2435Y1870D01*
X2433Y1876D01*
X2434Y1880D01*
X2436Y1884D01*
X2440Y1887D01*
G01X2445Y1910D02*
Y1931D01*
X2439Y1929D01*
X2435Y1926D01*
X2433Y1921D01*
X2434Y1917D01*
X2437Y1913D01*
X2443Y1910D01*
X2449Y1909D01*
X2454D01*
X2460Y1910D01*
X2465Y1913D01*
X2469Y1917D01*
X2470Y1922D01*
X2468Y1927D01*
X2463Y1931D01*
G01X2525Y485D02*
X2522Y481D01*
X2520Y476D01*
Y471D01*
X2523Y465D01*
X2527Y460D01*
X2533Y457D01*
X2542Y454D01*
X2550Y453D01*
X2559Y455D01*
X2564Y457D01*
X2570Y461D01*
X2573Y465D01*
X2575Y470D01*
Y475D01*
X2573Y479D01*
X2570Y483D01*
X2567Y487D01*
G01X2575Y515D02*
X2520D01*
X2531Y507D01*
G01X2575D02*
Y523D01*
G01X2552Y547D02*
X2546Y552D01*
X2542Y556D01*
X2540Y561D01*
X2542Y566D01*
X2546Y569D01*
X2551Y572D01*
X2558Y573D01*
X2563Y572D01*
X2569Y569D01*
X2573Y565D01*
X2575Y561D01*
X2573Y555D01*
X2568Y551D01*
X2559Y548D01*
X2550Y547D01*
X2538Y549D01*
X2532Y551D01*
X2526Y554D01*
X2521Y559D01*
X2520Y563D01*
X2522Y568D01*
X2526Y571D01*
G01X2520Y605D02*
X2522Y600D01*
X2526Y596D01*
X2532Y593D01*
X2539Y591D01*
X2548Y590D01*
X2556Y591D01*
X2563Y593D01*
X2569Y596D01*
X2573Y600D01*
X2575Y605D01*
X2573Y610D01*
X2569Y614D01*
X2563Y617D01*
X2556Y619D01*
X2548Y620D01*
X2539Y619D01*
X2532Y617D01*
X2526Y614D01*
X2522Y610D01*
X2520Y605D01*
G01X2575Y650D02*
X2520D01*
X2531Y642D01*
G01X2575D02*
Y658D01*
G01X2564Y680D02*
X2570Y684D01*
X2574Y690D01*
X2575Y696D01*
X2574Y701D01*
X2570Y706D01*
X2564Y710D01*
X2559Y710D01*
X2552Y709D01*
X2548Y704D01*
X2546Y700D01*
Y694D01*
G01Y700D02*
X2543Y704D01*
X2538Y707D01*
X2533Y708D01*
X2527Y707D01*
X2523Y704D01*
X2520Y698D01*
X2521Y692D01*
X2525Y686D01*
G01X2575Y772D02*
X2520D01*
Y788D01*
X2523Y794D01*
X2526Y797D01*
X2534Y798D01*
X2541Y797D01*
X2546Y793D01*
X2548Y788D01*
Y772D01*
G01Y788D02*
X2575Y798D01*
G01X2550Y820D02*
Y841D01*
X2544Y839D01*
X2540Y836D01*
X2538Y831D01*
X2539Y827D01*
X2542Y823D01*
X2548Y820D01*
X2554Y819D01*
X2559D01*
X2565Y820D01*
X2570Y823D01*
X2574Y827D01*
X2575Y832D01*
X2573Y837D01*
X2568Y841D01*
G01X2538Y863D02*
X2575Y875D01*
X2538Y887D01*
G01X2564Y950D02*
X2570Y954D01*
X2574Y960D01*
X2575Y966D01*
X2574Y971D01*
X2570Y976D01*
X2564Y980D01*
X2559Y980D01*
X2552Y979D01*
X2548Y974D01*
X2546Y970D01*
Y964D01*
G01Y970D02*
X2543Y974D01*
X2538Y977D01*
X2533Y978D01*
X2527Y977D01*
X2523Y974D01*
X2520Y968D01*
X2521Y962D01*
X2525Y956D01*
G01X2584Y1986D02*
X2587Y1980D01*
X2591Y1977D01*
X2596Y1975D01*
X2602Y1977D01*
X2606Y1980D01*
X2610Y1986D01*
X2611Y1993D01*
Y2030D01*
G01X2642Y1975D02*
Y2030D01*
X2635Y2019D01*
G01Y1975D02*
X2650D01*
G01X2636Y475D02*
X2633Y478D01*
X2628Y480D01*
X2622Y481D01*
X2616Y480D01*
X2613Y477D01*
X2610Y473D01*
Y455D01*
X2665D01*
Y477D01*
X2661Y481D01*
X2656Y484D01*
X2649Y485D01*
X2643Y484D01*
X2638Y480D01*
X2636Y475D01*
Y455D01*
G01X2628Y504D02*
X2654D01*
X2660Y506D01*
X2664Y510D01*
X2665Y515D01*
X2664Y520D01*
X2660Y524D01*
X2654Y526D01*
G01X2665D02*
X2628D01*
G01Y560D02*
X2665D01*
G01X2614D02*
X2613Y559D01*
X2611D01*
X2610Y560D01*
X2611Y561D01*
X2613D01*
X2614Y560D01*
G01X2665Y605D02*
X2610D01*
G01Y662D02*
X2665D01*
G01X2657D02*
X2661Y659D01*
X2664Y655D01*
X2665Y651D01*
X2663Y645D01*
X2659Y641D01*
X2653Y639D01*
X2647Y638D01*
X2640Y639D01*
X2635Y641D01*
X2630Y645D01*
X2628Y651D01*
X2629Y655D01*
X2631Y659D01*
X2635Y662D01*
G01X2665Y695D02*
X2610D01*
G01X2665Y740D02*
X2664Y736D01*
X2660Y732D01*
X2654Y729D01*
X2647Y728D01*
X2639Y729D01*
X2633Y732D01*
X2629Y736D01*
X2628Y740D01*
X2629Y744D01*
X2633Y748D01*
X2639Y751D01*
X2647Y751D01*
X2654Y751D01*
X2660Y748D01*
X2664Y744D01*
X2665Y740D01*
G01X2679Y776D02*
X2682Y780D01*
X2683Y786D01*
X2682Y790D01*
X2678Y794D01*
X2671Y797D01*
X2628D01*
G01X2636D02*
X2632Y794D01*
X2629Y790D01*
X2628Y786D01*
X2630Y780D01*
X2634Y777D01*
X2640Y774D01*
X2647Y773D01*
X2652Y774D01*
X2659Y776D01*
X2663Y780D01*
X2665Y786D01*
X2664Y790D01*
X2660Y794D01*
X2657Y797D01*
G01X2667Y830D02*
X2666Y829D01*
X2664D01*
X2663Y830D01*
X2664Y831D01*
X2666D01*
X2667Y830D01*
G01X2665Y864D02*
X2628D01*
G01X2638D02*
X2633Y866D01*
X2629Y870D01*
X2628Y876D01*
X2629Y880D01*
X2633Y884D01*
X2639Y886D01*
X2665D01*
G01X2640Y910D02*
Y931D01*
X2634Y929D01*
X2630Y926D01*
X2628Y921D01*
X2629Y917D01*
X2632Y913D01*
X2638Y910D01*
X2644Y909D01*
X2649D01*
X2655Y910D01*
X2660Y913D01*
X2664Y917D01*
X2665Y922D01*
X2663Y927D01*
X2658Y931D01*
G01X2610Y965D02*
X2665D01*
G01X2628Y956D02*
Y974D01*
G54D12*
G01X405Y200D02*
Y290D01*
G01X390Y85D02*
Y150D01*
G01X370Y245D02*
X440D01*
G54D13*
G01X0Y0D02*
Y2100D01*
X2700D01*
Y0D01*
X0D01*
M02*
