G04 ================== begin FILE IDENTIFICATION RECORD ==================*
G04 Layout Name:  C:\MotorCtl\ard_pololu_2\ard_pololu_2.brd*
G04 Film Name:    BOTTOM*
G04 File Format:  Gerber RS274X*
G04 File Origin:  -unreleased*
G04 Origin Date:  Tue Mar 13 13:06:19 2012*
G04 ================== end FILE IDENTIFICATION RECORD ====================*
%FSLAX53Y53*MOIN*%
%IR0*IPPOS*OFA0.00000B0.00000*MIA0B0*SFA1.00000B1.00000*%
%ADD10C,.1*%
%ADD11R,.1X.1*%
%ADD12C,.19*%
%ADD16C,.06*%
%ADD13C,.07*%
%ADD19C,.035*%
%ADD14C,.063*%
%ADD20C,.065*%
%ADD15R,.06X.06*%
%ADD17R,.07X.07*%
%ADD18R,.065X.065*%
%ADD21C,.01*%
%ADD22C,.012*%
%ADD23C,.015*%
%ADD24C,.018*%
%ADD25C,.001*%
%ADD27C,.128006*%
%ADD31C,.091006*%
%ADD26R,.128006X.128006*%
%ADD28C,.093006*%
%ADD29C,.088006*%
%ADD30R,.088006X.088006*%
G75*
%LPD*%
G75*
G36*
G01X15Y15D02*
Y2085D01*
X528D01*
Y2082D01*
G03X672Y2082I72J-82D01*
G01X672Y2085D01*
X2685D01*
Y1472D01*
X2682D01*
G03X2682Y1328I-82J-72D01*
G01X2685Y1328D01*
Y372D01*
X2682D01*
G03X2682Y228I-82J-72D01*
G01X2685Y228D01*
Y15D01*
X622D01*
Y18D01*
G03X478Y18I-72J82D01*
G01X478Y15D01*
X15D01*
G37*
%LPC*%
G75*
G36*
G01X466Y1196D02*
G02X434I-16J-46D01*
G03Y1204I-1J4D01*
G02Y1296I16J46D01*
G03Y1304I-1J4D01*
G02Y1396I16J46D01*
G03Y1404I-1J4D01*
G02Y1496I16J46D01*
G03Y1504I-1J4D01*
G02Y1596I16J46D01*
G03Y1604I-1J4D01*
G02Y1696I16J46D01*
G03Y1704I-1J4D01*
G02Y1796I16J46D01*
G03Y1804I-1J4D01*
G02X466I16J46D01*
G03Y1796I1J-4D01*
G02Y1704I-16J-46D01*
G03Y1696I1J-4D01*
G02Y1604I-16J-46D01*
G03Y1596I1J-4D01*
G02Y1504I-16J-46D01*
G03Y1496I1J-4D01*
G02Y1404I-16J-46D01*
G03Y1396I1J-4D01*
G02Y1304I-16J-46D01*
G03Y1296I1J-4D01*
G02Y1204I-16J-46D01*
G03Y1196I1J-4D01*
G37*
G36*
G01Y376D02*
G02X434I-16J-46D01*
G03Y384I-1J4D01*
G02Y476I16J46D01*
G03Y484I-1J4D01*
G02Y576I16J46D01*
G03Y584I-1J4D01*
G02Y676I16J46D01*
G03Y684I-1J4D01*
G02Y776I16J46D01*
G03Y784I-1J4D01*
G02Y876I16J46D01*
G03Y884I-1J4D01*
G02Y976I16J46D01*
G03Y984I-1J4D01*
G02X466I16J46D01*
G03Y976I1J-4D01*
G02Y884I-16J-46D01*
G03Y876I1J-4D01*
G02Y784I-16J-46D01*
G03Y776I1J-4D01*
G02Y684I-16J-46D01*
G03Y676I1J-4D01*
G02Y584I-16J-46D01*
G03Y576I1J-4D01*
G02Y484I-16J-46D01*
G03Y476I1J-4D01*
G02Y384I-16J-46D01*
G03Y376I1J-4D01*
G37*
G36*
G01X2001Y341D02*
G02X1969I-16J-46D01*
G03Y349I-1J4D01*
G02Y441I16J46D01*
G03Y449I-1J4D01*
G02Y541I16J46D01*
G03Y549I-1J4D01*
G02Y641I16J46D01*
G03Y649I-1J4D01*
G02Y741I16J46D01*
G03Y749I-1J4D01*
G02Y841I16J46D01*
G03Y849I-1J4D01*
G02Y941I16J46D01*
G03Y949I-1J4D01*
G02X2001I16J46D01*
G03Y941I1J-4D01*
G02Y849I-16J-46D01*
G03Y841I1J-4D01*
G02Y749I-16J-46D01*
G03Y741I1J-4D01*
G02Y649I-16J-46D01*
G03Y641I1J-4D01*
G02Y549I-16J-46D01*
G03Y541I1J-4D01*
G02Y449I-16J-46D01*
G03Y441I1J-4D01*
G02Y349I-16J-46D01*
G03Y341I1J-4D01*
G37*
G36*
G01X2046Y84D02*
G02Y116I-46J16D01*
G03X2054I4J1D01*
G02X2146I46J-16D01*
G03X2154I4J1D01*
G02X2246I46J-16D01*
G03X2254I4J1D01*
G02X2346I46J-16D01*
G03X2354I4J1D01*
G02X2443Y123I46J-16D01*
G01X2444Y121D01*
X2451Y123D01*
Y149D01*
X2549D01*
Y51D01*
X2451D01*
Y77D01*
X2444Y79D01*
X2443Y77D01*
G02X2354Y84I-43J23D01*
G03X2346I-4J-1D01*
G02X2254I-46J16D01*
G03X2246I-4J-1D01*
G02X2154I-46J16D01*
G03X2146I-4J-1D01*
G02X2054I-46J16D01*
G03X2046I-4J-1D01*
G37*
G36*
G01X1252Y647D02*
X1254Y644D01*
X1256Y644D01*
G02X1293Y559I14J-44D01*
G01X1292Y559D01*
Y541D01*
X1293Y541D01*
G02Y459I-23J-41D01*
G01X1292Y459D01*
Y441D01*
X1293Y441D01*
G02X1280Y354I-23J-41D01*
G01X1278Y354D01*
Y260D01*
X1335Y203D01*
X1420D01*
X1478Y144D01*
X1480Y145D01*
G02X1513Y147I20J-45D01*
G01X1514Y147D01*
X1652Y285D01*
X1665Y298D01*
X1666D01*
X1685Y298D01*
X1710Y298D01*
X1711Y297D01*
X1821D01*
X1843Y319D01*
Y357D01*
G02X1887Y357I21J38D01*
G01X1887Y301D01*
X1839Y253D01*
X1711D01*
X1710Y252D01*
X1685D01*
X1586Y154D01*
X1590Y148D01*
X1591Y148D01*
G02X1646Y116I9J-48D01*
G03X1654I4J1D01*
G02X1743Y123I46J-16D01*
G01X1744Y121D01*
X1751Y123D01*
Y149D01*
X1849D01*
Y51D01*
X1751D01*
Y77D01*
X1744Y79D01*
X1743Y77D01*
G02X1654Y84I-43J23D01*
G03X1646I-4J-1D01*
G02X1554I-46J16D01*
G03X1546I-4J-1D01*
G02X1454I-46J16D01*
G03X1446I-4J-1D01*
G02X1354I-46J16D01*
G03X1346I-4J-1D01*
G02Y116I-46J16D01*
G03X1354I4J1D01*
G02X1399Y149I46J-16D01*
G01X1400Y149D01*
X1403Y155D01*
X1400Y157D01*
X1315D01*
X1232Y240D01*
Y373D01*
X1232Y374D01*
G02X1247Y441I38J26D01*
G01X1248Y441D01*
Y459D01*
X1247Y459D01*
G02Y541I23J41D01*
G01X1248Y541D01*
Y559D01*
X1247Y559D01*
G02X1226Y614I23J41D01*
G01X1226Y616D01*
X1223Y618D01*
G03X1217Y616I-3J-3D01*
G01Y553D01*
X1123D01*
Y647D01*
X1186D01*
G03X1188Y653I0J4D01*
G01X1186Y656D01*
X1184Y656D01*
G02X1147Y741I-14J44D01*
G01X1148Y741D01*
Y759D01*
X1147Y759D01*
G02Y841I23J41D01*
G01X1148Y841D01*
Y859D01*
X1147Y859D01*
G02X1129Y879I23J41D01*
G01X1128Y880D01*
X1092D01*
X1040Y932D01*
Y1022D01*
X992Y1070D01*
X988D01*
X985Y1064D01*
X986Y1063D01*
G02X966Y984I-36J-33D01*
G03Y976I1J-4D01*
G02Y884I-16J-46D01*
G03Y876I1J-4D01*
G02X971Y786I-16J-46D01*
G01X970Y785D01*
Y775D01*
X971Y774D01*
G02X966Y684I-21J-44D01*
G03Y676I1J-4D01*
G02Y584I-16J-46D01*
G03Y576I1J-4D01*
G02Y484I-16J-46D01*
G03Y476I1J-4D01*
G02X973Y387I-16J-46D01*
G01X971Y386D01*
X973Y379D01*
X999D01*
Y281D01*
X901D01*
Y379D01*
X927D01*
X929Y386D01*
X927Y387D01*
G02X934Y476I23J43D01*
G03Y484I-1J4D01*
G02Y576I16J46D01*
G03Y584I-1J4D01*
G02Y676I16J46D01*
G03Y684I-1J4D01*
G02X929Y774I16J46D01*
G01X930Y775D01*
Y785D01*
X929Y786D01*
G02X934Y876I21J44D01*
G03Y884I-1J4D01*
G02Y976I16J46D01*
G03Y984I-1J4D01*
G02X914Y1063I16J46D01*
G01X915Y1064D01*
X912Y1070D01*
X765D01*
X764Y1069D01*
X719Y1023D01*
X684D01*
X616Y955D01*
X617Y954D01*
G02X572Y973I-37J-24D01*
G01X573Y973D01*
X666Y1067D01*
X701D01*
X734Y1099D01*
X746Y1112D01*
X828Y1194D01*
Y1381D01*
X558Y1651D01*
Y1712D01*
G02X602Y1712I21J38D01*
G01X602Y1669D01*
X872Y1399D01*
Y1176D01*
X812Y1117D01*
G03X815Y1110I3J-3D01*
G01X901D01*
Y1199D01*
X927D01*
X929Y1206D01*
X927Y1207D01*
G02X934Y1296I23J43D01*
G03Y1304I-1J4D01*
G02Y1396I16J46D01*
G03Y1404I-1J4D01*
G02Y1496I16J46D01*
G03Y1504I-1J4D01*
G02X929Y1594I16J46D01*
G01X930Y1595D01*
Y1605D01*
X929Y1606D01*
G02X934Y1696I21J44D01*
G03Y1704I-1J4D01*
G02Y1796I16J46D01*
G03Y1804I-1J4D01*
G02X966I16J46D01*
G03Y1796I1J-4D01*
G02Y1704I-16J-46D01*
G03Y1696I1J-4D01*
G02X971Y1606I-16J-46D01*
G01X970Y1605D01*
Y1595D01*
X971Y1594D01*
G02X966Y1504I-21J-44D01*
G03Y1496I1J-4D01*
G02X993Y1473I-16J-46D01*
G01X994Y1472D01*
X1029D01*
X1107Y1394D01*
Y1294D01*
X1120Y1280D01*
X1126Y1284D01*
X1126Y1285D01*
G02X1147Y1341I44J15D01*
G01X1148Y1341D01*
Y1359D01*
X1147Y1359D01*
G02Y1441I23J41D01*
G01X1148Y1441D01*
Y1459D01*
X1147Y1459D01*
G02X1193I23J41D01*
G01X1192Y1459D01*
Y1441D01*
X1193Y1441D01*
G02Y1359I-23J-41D01*
G01X1192Y1359D01*
Y1341D01*
X1193Y1341D01*
G02X1214Y1286I-23J-41D01*
G01X1214Y1284D01*
X1217Y1282D01*
G03X1223Y1284I3J3D01*
G01Y1347D01*
X1281D01*
X1283Y1349D01*
X1280Y1355D01*
X1279Y1354D01*
G02X1279Y1446I-9J46D01*
G01X1280Y1445D01*
X1283Y1449D01*
X1280Y1455D01*
X1279Y1454D01*
G02X1301Y1534I-9J46D01*
G01X1303Y1533D01*
X1393Y1624D01*
Y1659D01*
X1434Y1699D01*
X1433Y1700D01*
G02X1457Y1758I47J15D01*
G01X1459Y1759D01*
X1457Y1766D01*
X1431D01*
Y1855D01*
X1418D01*
X1398Y1835D01*
X1239D01*
X1238Y1834D01*
G02X1188Y1873I-24J21D01*
G01X1189Y1874D01*
X1186Y1879D01*
X1182D01*
X1170Y1867D01*
X1158Y1855D01*
X1157D01*
X1154Y1855D01*
X1154Y1854D01*
G02X1099Y1879I-24J21D01*
G03X1096Y1881I-2J0D01*
G02X1095Y1880I-21J24D01*
G01X1094Y1880D01*
Y1828D01*
X1108Y1813D01*
X1110Y1814D01*
G02X1081Y1785I15J-44D01*
G01X1082Y1787D01*
X1056Y1812D01*
Y1880D01*
X1055Y1880D01*
G02X1051Y1885I20J25D01*
G01X1050Y1886D01*
X1044Y1883D01*
Y1778D01*
X1105Y1717D01*
X1172D01*
Y1623D01*
X1078D01*
Y1690D01*
X1006Y1762D01*
Y1900D01*
X1005Y1900D01*
G02X1017Y1955I20J25D01*
G03X1019Y1962I-1J4D01*
G02X1004Y1984I31J38D01*
G03X996I-4J-1D01*
G02Y2016I-46J16D01*
G03X1004I4J1D01*
G02X1096I46J-16D01*
G03X1104I4J1D01*
G02X1196I46J-16D01*
G03X1204I4J1D01*
G02X1296I46J-16D01*
G03X1304I4J1D01*
G02X1396I46J-16D01*
G03X1404I4J1D01*
G02X1496I46J-16D01*
G03X1504I4J1D01*
G02X1593Y2023I46J-16D01*
G01X1594Y2021D01*
X1601Y2023D01*
Y2049D01*
X1699D01*
Y1962D01*
X1761D01*
X1763Y1968D01*
X1762Y1969D01*
G02X1846Y2016I38J31D01*
G03X1854I4J1D01*
G02X1946I46J-16D01*
G03X1954I4J1D01*
G02X2046I46J-16D01*
G03X2054I4J1D01*
G02X2146I46J-16D01*
G03X2154I4J1D01*
G02X2246I46J-16D01*
G03X2254I4J1D01*
G02X2346I46J-16D01*
G03X2354I4J1D01*
G02X2443Y2023I46J-16D01*
G01X2444Y2021D01*
X2451Y2023D01*
Y2049D01*
X2549D01*
Y1951D01*
X2451D01*
Y1977D01*
X2444Y1979D01*
X2443Y1977D01*
G02X2354Y1984I-43J23D01*
G03X2346I-4J-1D01*
G02X2321Y1956I-46J16D01*
G01X2320Y1955D01*
Y1912D01*
X2258Y1850D01*
X2022D01*
X2019Y1845D01*
X2020Y1844D01*
G02X1996Y1769I-40J-29D01*
G03Y1761I1J-4D01*
G02Y1669I-16J-46D01*
G03Y1661I1J-4D01*
G02Y1569I-16J-46D01*
G03Y1561I1J-4D01*
G02Y1469I-16J-46D01*
G03Y1461I1J-4D01*
G02Y1369I-16J-46D01*
G03Y1361I1J-4D01*
G02Y1269I-16J-46D01*
G03Y1261I1J-4D01*
G02Y1169I-16J-46D01*
G03Y1161I1J-4D01*
G02X1964I-16J-46D01*
G03Y1169I-1J4D01*
G02Y1261I16J46D01*
G03Y1269I-1J4D01*
G02Y1361I16J46D01*
G03Y1369I-1J4D01*
G02Y1461I16J46D01*
G03Y1469I-1J4D01*
G02Y1561I16J46D01*
G03Y1569I-1J4D01*
G02Y1661I16J46D01*
G03Y1669I-1J4D01*
G02Y1761I16J46D01*
G03Y1769I-1J4D01*
G02X1940Y1844I16J46D01*
G01X1941Y1845D01*
X1938Y1850D01*
X1812D01*
X1810Y1845D01*
X1810Y1844D01*
G02X1761Y1804I-25J-19D01*
G01X1761Y1805D01*
X1604D01*
X1604Y1804D01*
G02X1555Y1844I-24J21D01*
G01X1555Y1845D01*
X1553Y1850D01*
X1529D01*
Y1766D01*
X1503D01*
X1501Y1759D01*
X1503Y1758D01*
G02X1496Y1669I-23J-43D01*
G03Y1661I1J-4D01*
G02Y1569I-16J-46D01*
G03Y1561I1J-4D01*
G02Y1469I-16J-46D01*
G03Y1461I1J-4D01*
G02X1501Y1371I-16J-46D01*
G01X1500Y1370D01*
Y1360D01*
X1501Y1359D01*
G02X1496Y1269I-21J-44D01*
G03Y1261I1J-4D01*
G02Y1169I-16J-46D01*
G03Y1161I1J-4D01*
G02X1511Y1077I-16J-46D01*
G01X1510Y1076D01*
X1512Y1070D01*
X1782D01*
X1855Y1143D01*
Y1176D01*
X1854Y1176D01*
G02X1896I21J39D01*
G01X1895Y1176D01*
Y1127D01*
X1798Y1030D01*
X1534D01*
Y946D01*
X1508D01*
X1506Y939D01*
X1508Y938D01*
G02X1501Y849I-23J-43D01*
G03Y841I1J-4D01*
G02Y749I-16J-46D01*
G03Y741I1J-4D01*
G02Y649I-16J-46D01*
G03Y641I1J-4D01*
G02X1506Y551I-16J-46D01*
G01X1505Y550D01*
Y540D01*
X1506Y539D01*
G02X1501Y449I-21J-44D01*
G03Y441I1J-4D01*
G02Y349I-16J-46D01*
G03Y341I1J-4D01*
G02X1469I-16J-46D01*
G03Y349I-1J4D01*
G02Y441I16J46D01*
G03Y449I-1J4D01*
G02X1464Y539I16J46D01*
G01X1465Y540D01*
Y550D01*
X1464Y551D01*
G02X1469Y641I21J44D01*
G03Y649I-1J4D01*
G02Y741I16J46D01*
G03Y749I-1J4D01*
G02Y841I16J46D01*
G03Y849I-1J4D01*
G02X1462Y938I16J46D01*
G01X1464Y939D01*
X1462Y946D01*
X1436D01*
Y1030D01*
X1328D01*
X1314Y1016D01*
X1314Y1014D01*
G02X1256Y956I-44J-14D01*
G01X1254Y956D01*
X1214Y916D01*
X1214Y914D01*
G02X1193Y859I-44J-14D01*
G01X1192Y859D01*
Y841D01*
X1193Y841D01*
G02Y759I-23J-41D01*
G01X1192Y759D01*
Y741D01*
X1193Y741D01*
G02X1214Y686I-23J-41D01*
G01X1214Y684D01*
X1217Y682D01*
G03X1223Y684I3J3D01*
G01Y747D01*
X1317D01*
Y653D01*
X1254D01*
G03X1252Y647I0J-4D01*
G37*
G54D27*
X167Y1790D03*
X2250Y1728D03*
X167Y1593D03*
X2250Y1531D03*
X167Y1396D03*
X2250Y1334D03*
X167Y1003D03*
X2250Y891D03*
X167Y806D03*
X2250Y694D03*
X167Y609D03*
X2250Y497D03*
X167Y128D03*
G54D31*
X985Y125D03*
X788D03*
G54D26*
X167Y1987D03*
Y1200D03*
X2250Y1137D03*
X167Y325D03*
X2250Y300D03*
G54D28*
X1325Y1770D03*
X1225D03*
X1325Y1670D03*
X1225D03*
X1270Y900D03*
Y800D03*
X1170Y500D03*
Y400D03*
G54D29*
X780Y1750D03*
X1638Y1635D03*
X772Y1300D03*
X1675Y1215D03*
X780Y930D03*
X1663Y850D03*
X782Y480D03*
X1665Y395D03*
X1375Y290D03*
X1075D03*
G54D30*
X1775Y1635D03*
X635Y1300D03*
X1800Y850D03*
X645Y480D03*
%LPD*%
G75*
G54D10*
X167Y128D03*
Y806D03*
Y609D03*
Y1003D03*
Y1396D03*
Y1593D03*
Y1790D03*
X2250Y497D03*
Y694D03*
Y891D03*
Y1334D03*
Y1531D03*
Y1728D03*
G54D20*
X1125Y1770D03*
X1170Y500D03*
Y400D03*
X1270Y500D03*
Y400D03*
Y800D03*
X1170Y700D03*
Y800D03*
X1270Y600D03*
Y900D03*
X1170D03*
Y1100D03*
Y1000D03*
X1270Y1100D03*
Y1000D03*
Y1400D03*
X1170Y1300D03*
Y1400D03*
X1270Y1200D03*
X1225Y1670D03*
X1325D03*
X1270Y1500D03*
X1170D03*
X1225Y1770D03*
X1325D03*
G54D11*
X167Y325D03*
Y1200D03*
Y1987D03*
X2250Y300D03*
Y1137D03*
G54D21*
G01X436Y100D02*
X550D01*
G01X486Y2000D02*
X600D01*
G01X550Y100D02*
X664D01*
G01X550D02*
Y214D01*
G01X738Y125D02*
X788D01*
G01D02*
X839D01*
G01X788Y74D02*
Y125D01*
G01D02*
Y176D01*
G01X733Y480D02*
X782D01*
G01D02*
X831D01*
G01X782Y431D02*
Y480D01*
G01D02*
Y529D01*
G01X731Y930D02*
X780D01*
G01D02*
X829D01*
G01X780Y881D02*
Y930D01*
G01D02*
Y979D01*
G01X723Y1300D02*
X772D01*
G01D02*
X821D01*
G01X772Y1251D02*
Y1300D01*
G01D02*
Y1349D01*
G01X780Y1701D02*
Y1750D01*
G01X731D02*
X780D01*
G01D02*
X829D01*
G01X780D02*
Y1799D01*
G01X600Y2000D02*
X714D01*
G01X600Y1886D02*
Y2000D01*
G01X1026Y290D02*
X1075D01*
G01D02*
X1124D01*
G01X1075Y241D02*
Y290D01*
G01D02*
Y339D01*
G01X1025Y1925D02*
Y1770D01*
X1125Y1670D01*
G01X1900Y2000D02*
Y1962D01*
G01X2200Y1920D02*
X2183Y1938D01*
X1945D01*
X1928Y1920D01*
X1130D01*
X1115Y1905D01*
X1075D01*
G01D02*
Y1820D01*
X1125Y1770D01*
G01X1050Y2000D02*
Y2054D01*
G01X1925Y1899D02*
X1926Y1900D01*
X1955D01*
X1960Y1905D01*
X2000D01*
G01X1600Y46D02*
Y100D01*
G01D02*
Y154D01*
G01X1700Y46D02*
Y100D01*
G01D02*
Y154D01*
G01X1616Y395D02*
X1665D01*
G01D02*
X1714D01*
G01X1665Y346D02*
Y395D01*
G01D02*
Y444D01*
G01X1663Y801D02*
Y850D01*
G01X1614D02*
X1663D01*
G01D02*
X1712D01*
G01X1663D02*
Y899D01*
G01X1626Y1215D02*
X1675D01*
G01D02*
X1724D01*
G01X1675Y1166D02*
Y1215D01*
G01D02*
Y1264D01*
G01X1589Y1635D02*
X1638D01*
G01D02*
X1687D01*
G01X1638Y1586D02*
Y1635D01*
G01D02*
Y1684D01*
G01X1931Y895D02*
X1985D01*
G01D02*
X2039D01*
G01X1926Y1715D02*
X1980D01*
G01D02*
X2034D01*
G01X2600Y186D02*
Y300D01*
G01X2486D02*
X2600D01*
G01D02*
Y414D01*
G01X2486Y1400D02*
X2600D01*
G01Y1286D02*
Y1400D01*
G01D02*
Y1514D01*
G54D12*
X550Y100D03*
X600Y2000D03*
X2600Y300D03*
Y1400D03*
G54D22*
G01X755Y1090D02*
X1000Y1090D01*
X1060Y1030D01*
Y940D01*
X1100Y900D01*
X1170D01*
G01X950Y730D02*
Y830D01*
G01Y1550D02*
Y1650D01*
G01X1900Y1962D02*
X1880Y1942D01*
X1430D01*
X1429Y1943D01*
X1043D01*
X1025Y1925D01*
G01X1170Y700D02*
X1270Y600D01*
G01Y1000D02*
X1320Y1050D01*
X1790D01*
X1875Y1135D01*
Y1215D01*
G01X1170Y900D02*
X1270Y1000D01*
G01Y1200D02*
X1170Y1300D01*
G01X1130Y1875D02*
X1150D01*
X1174Y1899D01*
X1925D01*
G01X1215Y1855D02*
X1390D01*
X1410Y1875D01*
X1513D01*
X1518Y1870D01*
X2250D01*
X2300Y1920D01*
Y2000D01*
G01X1485Y595D02*
Y495D01*
G01X1480Y1315D02*
Y1415D01*
G01X1785Y1825D02*
X1580D01*
G54D13*
X450Y330D03*
Y430D03*
Y530D03*
Y630D03*
Y730D03*
Y830D03*
Y1150D03*
Y930D03*
Y1030D03*
Y1250D03*
Y1350D03*
Y1450D03*
Y1550D03*
Y1650D03*
Y1750D03*
Y1850D03*
X950Y430D03*
Y530D03*
Y630D03*
Y730D03*
Y830D03*
Y930D03*
Y1030D03*
Y1250D03*
Y1350D03*
Y1450D03*
Y1550D03*
Y1650D03*
Y1750D03*
X1150Y2000D03*
X1050D03*
X950D03*
Y1850D03*
X1400Y100D03*
X1300D03*
X1450Y2000D03*
X1350D03*
X1250D03*
X1700Y100D03*
X1600D03*
X1500D03*
X1485Y495D03*
Y395D03*
Y295D03*
Y795D03*
Y695D03*
Y595D03*
X1480Y1115D03*
X1485Y895D03*
X1480Y1415D03*
Y1315D03*
Y1215D03*
Y1715D03*
Y1615D03*
Y1515D03*
X1550Y2000D03*
X2000Y100D03*
X1985Y495D03*
Y395D03*
Y295D03*
Y795D03*
Y695D03*
Y595D03*
X1980Y1115D03*
X1985Y995D03*
Y895D03*
X1980Y1415D03*
Y1315D03*
Y1215D03*
Y1715D03*
Y1615D03*
Y1515D03*
X2000Y2000D03*
X1900D03*
X1800D03*
X1980Y1815D03*
X2300Y100D03*
X2200D03*
X2100D03*
X2300Y2000D03*
X2200D03*
X2100D03*
X2400Y100D03*
Y2000D03*
G54D23*
G01X755Y1090D02*
X710Y1045D01*
X675D01*
X580Y950D01*
Y930D01*
G01Y1750D02*
Y1660D01*
X850Y1390D01*
Y1185D01*
X755Y1090D01*
G01X1170Y1000D02*
X1040Y1130D01*
Y1170D01*
X960Y1250D01*
X950D01*
G01X1170Y1100D02*
X1030Y1240D01*
Y1315D01*
X995Y1350D01*
X950D01*
G01X1170Y1200D02*
X1085Y1285D01*
Y1385D01*
X1020Y1450D01*
X950D01*
G01X1270Y400D02*
X1255Y385D01*
Y250D01*
G01X1270Y600D02*
Y500D01*
G01D02*
Y400D01*
G01X1170Y900D02*
Y800D01*
G01D02*
Y700D01*
G01X1270Y1200D02*
Y1100D01*
G01D02*
Y1000D01*
G01Y1400D02*
Y1405D01*
X1480Y1615D01*
G01Y1515D02*
X1270Y1305D01*
Y1300D01*
G01X1170Y1500D02*
Y1400D01*
G01D02*
Y1300D01*
G01X1480Y1715D02*
X1415Y1650D01*
Y1615D01*
X1300Y1500D01*
X1270D01*
G01X1865Y395D02*
Y310D01*
X1830Y275D01*
X1700D01*
G54D14*
X788Y125D03*
X985D03*
G54D24*
G01X98Y128D02*
X167D01*
G01D02*
X236D01*
G01X167Y59D02*
Y128D01*
G01D02*
Y197D01*
G01X396Y430D02*
X450D01*
G01D02*
X504D01*
G01X396Y1030D02*
X450D01*
G01D02*
X504D01*
G01X450D02*
Y1084D01*
G01X396Y1250D02*
X450D01*
G01D02*
X504D01*
G01X396Y1850D02*
X450D01*
G01D02*
X504D01*
G01X450D02*
Y1904D01*
G01X1255Y250D02*
X1325Y180D01*
X1410D01*
X1490Y100D01*
X1500D01*
G01X1700Y275D02*
X1675D01*
X1500Y100D01*
G01X1931Y295D02*
X1985D01*
G01D02*
X2039D01*
G01X1985Y241D02*
Y295D01*
G01X1980Y1061D02*
Y1115D01*
G01X1926D02*
X1980D01*
G01D02*
X2034D01*
G54D15*
X645Y480D03*
X635Y1300D03*
X1800Y850D03*
X1775Y1635D03*
G54D25*
G01X0Y0D02*
Y2100D01*
X2700D01*
Y0D01*
X0D01*
G54D16*
X782Y480D03*
X580Y930D03*
X780D03*
X772Y1300D03*
X580Y1750D03*
X780D03*
X1075Y290D03*
X1375D03*
X1665Y395D03*
X1663Y850D03*
X1675Y1215D03*
X1638Y1635D03*
X1865Y395D03*
X1875Y1215D03*
G54D17*
X950Y330D03*
Y1150D03*
X1485Y995D03*
X1650Y2000D03*
X1480Y1815D03*
X1800Y100D03*
X2500D03*
Y2000D03*
G54D18*
X1125Y1670D03*
X1270Y700D03*
X1170Y600D03*
X1270Y1300D03*
X1170Y1200D03*
G54D19*
X1025Y1925D03*
X1075Y1905D03*
X1130Y1875D03*
X1215Y1855D03*
X1580Y1825D03*
X1785D03*
X2000Y1905D03*
X2200Y1920D03*
M02*
